<mxfile host="app.diagrams.net" modified="2020-12-14T21:44:48.851Z" agent="5.0 (Windows NT 10.0; Win64; x64) AppleWebKit/537.36 (KHTML, like Gecko) Chrome/87.0.4280.88 Safari/537.36" etag="QQU6XnZU62CLqREbbkkk" version="13.9.7" type="github">
  <diagram id="LbX8qGbdodIi82UEs2iO" name="Page-1">
    <mxGraphModel dx="3349" dy="1651" grid="1" gridSize="10" guides="1" tooltips="1" connect="1" arrows="1" fold="1" page="1" pageScale="1" pageWidth="827" pageHeight="1169" background="#5E5E5E" math="0" shadow="0">
      <root>
        <mxCell id="0" />
        <mxCell id="1" parent="0" />
        <mxCell id="rRCzJtvxpl4aAJUOXlck-1" value="usuários" style="whiteSpace=wrap;html=1;align=center;" parent="1" vertex="1">
          <mxGeometry x="-240" y="240" width="100" height="40" as="geometry" />
        </mxCell>
        <mxCell id="rRCzJtvxpl4aAJUOXlck-2" value="cpf" style="ellipse;whiteSpace=wrap;html=1;align=center;fontStyle=4;" parent="1" vertex="1">
          <mxGeometry x="-440" y="200" width="100" height="40" as="geometry" />
        </mxCell>
        <mxCell id="rRCzJtvxpl4aAJUOXlck-13" value="" style="endArrow=none;html=1;rounded=0;entryX=1;entryY=0.5;entryDx=0;entryDy=0;exitX=0;exitY=0;exitDx=0;exitDy=0;" parent="1" source="rRCzJtvxpl4aAJUOXlck-1" target="rRCzJtvxpl4aAJUOXlck-2" edge="1">
          <mxGeometry relative="1" as="geometry">
            <mxPoint x="300" y="318" as="sourcePoint" />
            <mxPoint x="470" y="290" as="targetPoint" />
          </mxGeometry>
        </mxCell>
        <mxCell id="rRCzJtvxpl4aAJUOXlck-16" value="" style="endArrow=none;html=1;rounded=0;entryX=1;entryY=0.5;entryDx=0;entryDy=0;" parent="1" source="rRCzJtvxpl4aAJUOXlck-1" target="rRCzJtvxpl4aAJUOXlck-18" edge="1">
          <mxGeometry relative="1" as="geometry">
            <mxPoint x="350" y="320" as="sourcePoint" />
            <mxPoint x="410" y="280" as="targetPoint" />
          </mxGeometry>
        </mxCell>
        <mxCell id="rRCzJtvxpl4aAJUOXlck-17" value="Nome" style="ellipse;whiteSpace=wrap;html=1;align=center;" parent="1" vertex="1">
          <mxGeometry x="-510" y="280" width="100" height="40" as="geometry" />
        </mxCell>
        <mxCell id="rRCzJtvxpl4aAJUOXlck-18" value="senha" style="ellipse;whiteSpace=wrap;html=1;align=center;" parent="1" vertex="1">
          <mxGeometry x="-360" y="120" width="100" height="40" as="geometry" />
        </mxCell>
        <mxCell id="rRCzJtvxpl4aAJUOXlck-20" value="" style="endArrow=none;html=1;rounded=0;exitX=1;exitY=0.5;exitDx=0;exitDy=0;entryX=0;entryY=0.5;entryDx=0;entryDy=0;" parent="1" source="rRCzJtvxpl4aAJUOXlck-17" target="rRCzJtvxpl4aAJUOXlck-1" edge="1">
          <mxGeometry relative="1" as="geometry">
            <mxPoint x="370" y="490" as="sourcePoint" />
            <mxPoint x="530" y="490" as="targetPoint" />
          </mxGeometry>
        </mxCell>
        <mxCell id="rRCzJtvxpl4aAJUOXlck-21" value="telefone" style="ellipse;whiteSpace=wrap;html=1;align=center;" parent="1" vertex="1">
          <mxGeometry x="-200" y="80" width="100" height="40" as="geometry" />
        </mxCell>
        <mxCell id="rRCzJtvxpl4aAJUOXlck-22" value="" style="endArrow=none;html=1;rounded=0;exitX=0.75;exitY=0;exitDx=0;exitDy=0;entryX=0.5;entryY=1;entryDx=0;entryDy=0;" parent="1" source="rRCzJtvxpl4aAJUOXlck-1" target="rRCzJtvxpl4aAJUOXlck-21" edge="1">
          <mxGeometry relative="1" as="geometry">
            <mxPoint x="380" y="500" as="sourcePoint" />
            <mxPoint x="540" y="500" as="targetPoint" />
          </mxGeometry>
        </mxCell>
        <mxCell id="rRCzJtvxpl4aAJUOXlck-23" value="O" style="ellipse;whiteSpace=wrap;html=1;align=center;" parent="1" vertex="1">
          <mxGeometry x="-210" y="380" width="40" height="40" as="geometry" />
        </mxCell>
        <mxCell id="rRCzJtvxpl4aAJUOXlck-24" value="" style="endArrow=none;html=1;rounded=0;exitX=0.38;exitY=1.025;exitDx=0;exitDy=0;exitPerimeter=0;entryX=0.25;entryY=0;entryDx=0;entryDy=0;entryPerimeter=0;" parent="1" source="rRCzJtvxpl4aAJUOXlck-1" target="rRCzJtvxpl4aAJUOXlck-23" edge="1">
          <mxGeometry relative="1" as="geometry">
            <mxPoint x="390" y="510" as="sourcePoint" />
            <mxPoint x="550" y="510" as="targetPoint" />
          </mxGeometry>
        </mxCell>
        <mxCell id="rRCzJtvxpl4aAJUOXlck-25" value="" style="endArrow=none;html=1;rounded=0;exitX=0.5;exitY=1;exitDx=0;exitDy=0;entryX=0.5;entryY=0;entryDx=0;entryDy=0;" parent="1" source="rRCzJtvxpl4aAJUOXlck-1" target="rRCzJtvxpl4aAJUOXlck-23" edge="1">
          <mxGeometry relative="1" as="geometry">
            <mxPoint x="400" y="520" as="sourcePoint" />
            <mxPoint x="560" y="520" as="targetPoint" />
          </mxGeometry>
        </mxCell>
        <mxCell id="rRCzJtvxpl4aAJUOXlck-27" value="administrador" style="whiteSpace=wrap;html=1;align=center;" parent="1" vertex="1">
          <mxGeometry x="-600" y="480" width="100" height="40" as="geometry" />
        </mxCell>
        <mxCell id="rRCzJtvxpl4aAJUOXlck-28" value="" style="endArrow=none;html=1;rounded=0;exitX=0.5;exitY=0;exitDx=0;exitDy=0;entryX=0;entryY=1;entryDx=0;entryDy=0;" parent="1" source="rRCzJtvxpl4aAJUOXlck-27" target="rRCzJtvxpl4aAJUOXlck-23" edge="1">
          <mxGeometry relative="1" as="geometry">
            <mxPoint x="410" y="530" as="sourcePoint" />
            <mxPoint x="570" y="530" as="targetPoint" />
          </mxGeometry>
        </mxCell>
        <mxCell id="rRCzJtvxpl4aAJUOXlck-29" value="Proprietário" style="whiteSpace=wrap;html=1;align=center;" parent="1" vertex="1">
          <mxGeometry x="400" y="520" width="100" height="40" as="geometry" />
        </mxCell>
        <mxCell id="rRCzJtvxpl4aAJUOXlck-30" value="" style="endArrow=none;html=1;rounded=0;exitX=1;exitY=1;exitDx=0;exitDy=0;entryX=0.5;entryY=0;entryDx=0;entryDy=0;" parent="1" source="rRCzJtvxpl4aAJUOXlck-23" target="rRCzJtvxpl4aAJUOXlck-29" edge="1">
          <mxGeometry relative="1" as="geometry">
            <mxPoint x="420" y="540" as="sourcePoint" />
            <mxPoint x="580" y="540" as="targetPoint" />
          </mxGeometry>
        </mxCell>
        <mxCell id="rRCzJtvxpl4aAJUOXlck-42" value="veículo" style="whiteSpace=wrap;html=1;align=center;" parent="1" vertex="1">
          <mxGeometry x="610" y="370" width="100" height="40" as="geometry" />
        </mxCell>
        <mxCell id="rRCzJtvxpl4aAJUOXlck-45" value="modelo" style="ellipse;whiteSpace=wrap;html=1;align=center;" parent="1" vertex="1">
          <mxGeometry x="530" y="280" width="100" height="40" as="geometry" />
        </mxCell>
        <mxCell id="rRCzJtvxpl4aAJUOXlck-46" value="" style="endArrow=none;html=1;rounded=0;entryX=0.25;entryY=0;entryDx=0;entryDy=0;exitX=0.59;exitY=1;exitDx=0;exitDy=0;exitPerimeter=0;" parent="1" source="rRCzJtvxpl4aAJUOXlck-45" target="rRCzJtvxpl4aAJUOXlck-42" edge="1">
          <mxGeometry relative="1" as="geometry">
            <mxPoint x="598" y="362" as="sourcePoint" />
            <mxPoint x="810" y="340" as="targetPoint" />
          </mxGeometry>
        </mxCell>
        <mxCell id="rRCzJtvxpl4aAJUOXlck-48" value="" style="endArrow=none;html=1;rounded=0;exitX=0.5;exitY=0;exitDx=0;exitDy=0;entryX=0.5;entryY=1;entryDx=0;entryDy=0;" parent="1" source="rRCzJtvxpl4aAJUOXlck-42" target="rRCzJtvxpl4aAJUOXlck-49" edge="1">
          <mxGeometry relative="1" as="geometry">
            <mxPoint x="690" y="410" as="sourcePoint" />
            <mxPoint x="730" y="360" as="targetPoint" />
          </mxGeometry>
        </mxCell>
        <mxCell id="rRCzJtvxpl4aAJUOXlck-49" value="Placa" style="ellipse;whiteSpace=wrap;html=1;align=center;fontStyle=4;" parent="1" vertex="1">
          <mxGeometry x="650" y="280" width="100" height="40" as="geometry" />
        </mxCell>
        <mxCell id="rRCzJtvxpl4aAJUOXlck-50" value="Possui" style="shape=rhombus;perimeter=rhombusPerimeter;whiteSpace=wrap;html=1;align=center;" parent="1" vertex="1">
          <mxGeometry x="600" y="510" width="120" height="60" as="geometry" />
        </mxCell>
        <mxCell id="rRCzJtvxpl4aAJUOXlck-51" value="" style="shape=link;html=1;rounded=0;exitX=0.5;exitY=0;exitDx=0;exitDy=0;entryX=0.5;entryY=1;entryDx=0;entryDy=0;" parent="1" source="rRCzJtvxpl4aAJUOXlck-50" target="rRCzJtvxpl4aAJUOXlck-42" edge="1">
          <mxGeometry relative="1" as="geometry">
            <mxPoint x="670" y="520" as="sourcePoint" />
            <mxPoint x="810" y="490" as="targetPoint" />
          </mxGeometry>
        </mxCell>
        <mxCell id="rRCzJtvxpl4aAJUOXlck-52" value="N" style="resizable=0;html=1;align=right;verticalAlign=bottom;" parent="rRCzJtvxpl4aAJUOXlck-51" connectable="0" vertex="1">
          <mxGeometry x="1" relative="1" as="geometry">
            <mxPoint x="10" y="40" as="offset" />
          </mxGeometry>
        </mxCell>
        <mxCell id="rRCzJtvxpl4aAJUOXlck-56" value="" style="endArrow=none;html=1;rounded=0;entryX=1;entryY=0.5;entryDx=0;entryDy=0;" parent="1" source="rRCzJtvxpl4aAJUOXlck-50" target="rRCzJtvxpl4aAJUOXlck-29" edge="1">
          <mxGeometry relative="1" as="geometry">
            <mxPoint x="450" y="460" as="sourcePoint" />
            <mxPoint x="530" y="620" as="targetPoint" />
          </mxGeometry>
        </mxCell>
        <mxCell id="rRCzJtvxpl4aAJUOXlck-57" value="N" style="resizable=0;html=1;align=right;verticalAlign=bottom;" parent="rRCzJtvxpl4aAJUOXlck-56" connectable="0" vertex="1">
          <mxGeometry x="1" relative="1" as="geometry">
            <mxPoint x="40" as="offset" />
          </mxGeometry>
        </mxCell>
        <mxCell id="rRCzJtvxpl4aAJUOXlck-60" value="tem" style="shape=rhombus;double=1;perimeter=rhombusPerimeter;whiteSpace=wrap;html=1;align=center;" parent="1" vertex="1">
          <mxGeometry x="770" y="360" width="120" height="60" as="geometry" />
        </mxCell>
        <mxCell id="rRCzJtvxpl4aAJUOXlck-62" value="" style="endArrow=none;html=1;rounded=0;exitX=0;exitY=0.5;exitDx=0;exitDy=0;entryX=1;entryY=0.5;entryDx=0;entryDy=0;" parent="1" source="rRCzJtvxpl4aAJUOXlck-60" target="rRCzJtvxpl4aAJUOXlck-42" edge="1">
          <mxGeometry relative="1" as="geometry">
            <mxPoint x="810" y="395" as="sourcePoint" />
            <mxPoint x="740" y="385" as="targetPoint" />
          </mxGeometry>
        </mxCell>
        <mxCell id="rRCzJtvxpl4aAJUOXlck-63" value="1" style="resizable=0;html=1;align=right;verticalAlign=bottom;" parent="rRCzJtvxpl4aAJUOXlck-62" connectable="0" vertex="1">
          <mxGeometry x="1" relative="1" as="geometry">
            <mxPoint x="19.879999999999995" y="20.009999999999998" as="offset" />
          </mxGeometry>
        </mxCell>
        <mxCell id="rRCzJtvxpl4aAJUOXlck-64" value="" style="shape=link;html=1;rounded=0;exitX=1;exitY=0.5;exitDx=0;exitDy=0;entryX=0;entryY=0.5;entryDx=0;entryDy=0;" parent="1" source="rRCzJtvxpl4aAJUOXlck-60" target="rRCzJtvxpl4aAJUOXlck-67" edge="1">
          <mxGeometry relative="1" as="geometry">
            <mxPoint x="840" y="460" as="sourcePoint" />
            <mxPoint x="1080" y="380" as="targetPoint" />
          </mxGeometry>
        </mxCell>
        <mxCell id="rRCzJtvxpl4aAJUOXlck-65" value="N" style="resizable=0;html=1;align=right;verticalAlign=bottom;" parent="rRCzJtvxpl4aAJUOXlck-64" connectable="0" vertex="1">
          <mxGeometry x="1" relative="1" as="geometry" />
        </mxCell>
        <mxCell id="rRCzJtvxpl4aAJUOXlck-67" value="despesas" style="shape=ext;margin=3;double=1;whiteSpace=wrap;html=1;align=center;" parent="1" vertex="1">
          <mxGeometry x="940" y="370" width="100" height="40" as="geometry" />
        </mxCell>
        <mxCell id="rRCzJtvxpl4aAJUOXlck-73" value="&lt;span style=&quot;border-bottom: 1px dotted&quot;&gt;Data&lt;/span&gt;" style="ellipse;whiteSpace=wrap;html=1;align=center;" parent="1" vertex="1">
          <mxGeometry x="870" y="280" width="100" height="40" as="geometry" />
        </mxCell>
        <mxCell id="rRCzJtvxpl4aAJUOXlck-75" value="&lt;span style=&quot;border-bottom: 1px dotted&quot;&gt;tipo&lt;/span&gt;" style="ellipse;whiteSpace=wrap;html=1;align=center;" parent="1" vertex="1">
          <mxGeometry x="980" y="280" width="100" height="40" as="geometry" />
        </mxCell>
        <mxCell id="rRCzJtvxpl4aAJUOXlck-76" value="" style="endArrow=none;html=1;rounded=0;exitX=0.5;exitY=1;exitDx=0;exitDy=0;entryX=0.25;entryY=0;entryDx=0;entryDy=0;" parent="1" source="rRCzJtvxpl4aAJUOXlck-73" target="rRCzJtvxpl4aAJUOXlck-67" edge="1">
          <mxGeometry relative="1" as="geometry">
            <mxPoint x="640" y="460" as="sourcePoint" />
            <mxPoint x="800" y="460" as="targetPoint" />
          </mxGeometry>
        </mxCell>
        <mxCell id="rRCzJtvxpl4aAJUOXlck-77" value="" style="endArrow=none;html=1;rounded=0;entryX=0.5;entryY=1;entryDx=0;entryDy=0;exitX=0.44;exitY=-0.025;exitDx=0;exitDy=0;exitPerimeter=0;" parent="1" source="rRCzJtvxpl4aAJUOXlck-67" target="rRCzJtvxpl4aAJUOXlck-75" edge="1">
          <mxGeometry relative="1" as="geometry">
            <mxPoint x="960" y="330" as="sourcePoint" />
            <mxPoint x="1120" y="330" as="targetPoint" />
          </mxGeometry>
        </mxCell>
        <mxCell id="rRCzJtvxpl4aAJUOXlck-79" value="valor" style="ellipse;whiteSpace=wrap;html=1;align=center;" parent="1" vertex="1">
          <mxGeometry x="1080" y="320" width="100" height="40" as="geometry" />
        </mxCell>
        <mxCell id="rRCzJtvxpl4aAJUOXlck-80" value="" style="endArrow=none;html=1;rounded=0;entryX=0.34;entryY=1;entryDx=0;entryDy=0;entryPerimeter=0;exitX=1;exitY=0.25;exitDx=0;exitDy=0;" parent="1" source="rRCzJtvxpl4aAJUOXlck-67" target="rRCzJtvxpl4aAJUOXlck-79" edge="1">
          <mxGeometry relative="1" as="geometry">
            <mxPoint x="790" y="460" as="sourcePoint" />
            <mxPoint x="950" y="460" as="targetPoint" />
          </mxGeometry>
        </mxCell>
        <mxCell id="6qefKc0W0BFcvtpMO_tD-1" value="fiscaliza" style="shape=rhombus;perimeter=rhombusPerimeter;whiteSpace=wrap;html=1;align=center;" parent="1" vertex="1">
          <mxGeometry x="560" y="630" width="120" height="60" as="geometry" />
        </mxCell>
        <mxCell id="6qefKc0W0BFcvtpMO_tD-3" value="condomínio" style="rounded=1;arcSize=10;whiteSpace=wrap;html=1;align=center;" parent="1" vertex="1">
          <mxGeometry x="800" y="640" width="100" height="40" as="geometry" />
        </mxCell>
        <mxCell id="6qefKc0W0BFcvtpMO_tD-4" value="" style="endArrow=none;html=1;rounded=0;entryX=0;entryY=0.5;entryDx=0;entryDy=0;" parent="1" source="rRCzJtvxpl4aAJUOXlck-29" target="6qefKc0W0BFcvtpMO_tD-1" edge="1">
          <mxGeometry relative="1" as="geometry">
            <mxPoint x="460" y="750" as="sourcePoint" />
            <mxPoint x="620" y="750" as="targetPoint" />
            <Array as="points">
              <mxPoint x="510" y="660" />
            </Array>
          </mxGeometry>
        </mxCell>
        <mxCell id="6qefKc0W0BFcvtpMO_tD-5" value="1" style="resizable=0;html=1;align=right;verticalAlign=bottom;" parent="6qefKc0W0BFcvtpMO_tD-4" connectable="0" vertex="1">
          <mxGeometry x="1" relative="1" as="geometry" />
        </mxCell>
        <mxCell id="6qefKc0W0BFcvtpMO_tD-6" value="" style="shape=link;html=1;rounded=0;entryX=0;entryY=0.5;entryDx=0;entryDy=0;" parent="1" source="6qefKc0W0BFcvtpMO_tD-1" target="6qefKc0W0BFcvtpMO_tD-3" edge="1">
          <mxGeometry relative="1" as="geometry">
            <mxPoint x="460" y="550" as="sourcePoint" />
            <mxPoint x="620" y="550" as="targetPoint" />
          </mxGeometry>
        </mxCell>
        <mxCell id="6qefKc0W0BFcvtpMO_tD-7" value="N" style="resizable=0;html=1;align=right;verticalAlign=bottom;" parent="6qefKc0W0BFcvtpMO_tD-6" connectable="0" vertex="1">
          <mxGeometry x="1" relative="1" as="geometry">
            <mxPoint x="-47" as="offset" />
          </mxGeometry>
        </mxCell>
        <mxCell id="6qefKc0W0BFcvtpMO_tD-8" value="Número" style="ellipse;whiteSpace=wrap;html=1;align=center;fontStyle=4;" parent="1" vertex="1">
          <mxGeometry x="750" y="560" width="100" height="40" as="geometry" />
        </mxCell>
        <mxCell id="6qefKc0W0BFcvtpMO_tD-9" value="" style="endArrow=none;html=1;rounded=0;exitX=0.25;exitY=0;exitDx=0;exitDy=0;" parent="1" source="6qefKc0W0BFcvtpMO_tD-3" target="6qefKc0W0BFcvtpMO_tD-8" edge="1">
          <mxGeometry relative="1" as="geometry">
            <mxPoint x="550" y="550" as="sourcePoint" />
            <mxPoint x="710" y="550" as="targetPoint" />
          </mxGeometry>
        </mxCell>
        <mxCell id="6qefKc0W0BFcvtpMO_tD-10" value="inquilino" style="ellipse;whiteSpace=wrap;html=1;align=center;" parent="1" vertex="1">
          <mxGeometry x="880" y="560" width="100" height="40" as="geometry" />
        </mxCell>
        <mxCell id="6qefKc0W0BFcvtpMO_tD-11" value="" style="endArrow=none;html=1;rounded=0;entryX=0.36;entryY=0.975;entryDx=0;entryDy=0;entryPerimeter=0;exitX=0.5;exitY=0;exitDx=0;exitDy=0;" parent="1" source="6qefKc0W0BFcvtpMO_tD-3" target="6qefKc0W0BFcvtpMO_tD-10" edge="1">
          <mxGeometry relative="1" as="geometry">
            <mxPoint x="550" y="550" as="sourcePoint" />
            <mxPoint x="710" y="550" as="targetPoint" />
          </mxGeometry>
        </mxCell>
        <mxCell id="6qefKc0W0BFcvtpMO_tD-12" value="ocupada" style="ellipse;whiteSpace=wrap;html=1;align=center;" parent="1" vertex="1">
          <mxGeometry x="1000" y="600" width="100" height="40" as="geometry" />
        </mxCell>
        <mxCell id="6qefKc0W0BFcvtpMO_tD-13" value="" style="endArrow=none;html=1;rounded=0;entryX=0;entryY=0.5;entryDx=0;entryDy=0;exitX=1;exitY=0.25;exitDx=0;exitDy=0;" parent="1" source="6qefKc0W0BFcvtpMO_tD-3" target="6qefKc0W0BFcvtpMO_tD-12" edge="1">
          <mxGeometry relative="1" as="geometry">
            <mxPoint x="830" y="650" as="sourcePoint" />
            <mxPoint x="990" y="650" as="targetPoint" />
          </mxGeometry>
        </mxCell>
        <mxCell id="6qefKc0W0BFcvtpMO_tD-14" value="data de venc" style="ellipse;whiteSpace=wrap;html=1;align=center;" parent="1" vertex="1">
          <mxGeometry x="1000" y="680" width="100" height="40" as="geometry" />
        </mxCell>
        <mxCell id="6qefKc0W0BFcvtpMO_tD-15" value="" style="endArrow=none;html=1;rounded=0;entryX=0;entryY=0.5;entryDx=0;entryDy=0;exitX=1;exitY=0.75;exitDx=0;exitDy=0;" parent="1" source="6qefKc0W0BFcvtpMO_tD-3" target="6qefKc0W0BFcvtpMO_tD-14" edge="1">
          <mxGeometry relative="1" as="geometry">
            <mxPoint x="880" y="650" as="sourcePoint" />
            <mxPoint x="1040" y="650" as="targetPoint" />
          </mxGeometry>
        </mxCell>
        <mxCell id="6qefKc0W0BFcvtpMO_tD-18" value="tem" style="shape=rhombus;double=1;perimeter=rhombusPerimeter;whiteSpace=wrap;html=1;align=center;" parent="1" vertex="1">
          <mxGeometry x="780" y="740" width="120" height="60" as="geometry" />
        </mxCell>
        <mxCell id="6qefKc0W0BFcvtpMO_tD-19" value="" style="endArrow=none;html=1;rounded=0;exitX=0.44;exitY=1.025;exitDx=0;exitDy=0;exitPerimeter=0;entryX=0.5;entryY=0;entryDx=0;entryDy=0;" parent="1" source="6qefKc0W0BFcvtpMO_tD-3" target="6qefKc0W0BFcvtpMO_tD-18" edge="1">
          <mxGeometry relative="1" as="geometry">
            <mxPoint x="630" y="950" as="sourcePoint" />
            <mxPoint x="790" y="950" as="targetPoint" />
          </mxGeometry>
        </mxCell>
        <mxCell id="6qefKc0W0BFcvtpMO_tD-20" value="1" style="resizable=0;html=1;align=right;verticalAlign=bottom;" parent="6qefKc0W0BFcvtpMO_tD-19" connectable="0" vertex="1">
          <mxGeometry x="1" relative="1" as="geometry" />
        </mxCell>
        <mxCell id="6qefKc0W0BFcvtpMO_tD-21" value="contas" style="shape=ext;margin=3;double=1;whiteSpace=wrap;html=1;align=center;" parent="1" vertex="1">
          <mxGeometry x="790" y="880" width="100" height="40" as="geometry" />
        </mxCell>
        <mxCell id="6qefKc0W0BFcvtpMO_tD-22" value="" style="shape=link;html=1;rounded=0;exitX=0.5;exitY=1;exitDx=0;exitDy=0;entryX=0.5;entryY=0;entryDx=0;entryDy=0;" parent="1" source="6qefKc0W0BFcvtpMO_tD-18" target="6qefKc0W0BFcvtpMO_tD-21" edge="1">
          <mxGeometry relative="1" as="geometry">
            <mxPoint x="630" y="850" as="sourcePoint" />
            <mxPoint x="790" y="850" as="targetPoint" />
          </mxGeometry>
        </mxCell>
        <mxCell id="6qefKc0W0BFcvtpMO_tD-23" value="N" style="resizable=0;html=1;align=right;verticalAlign=bottom;" parent="6qefKc0W0BFcvtpMO_tD-22" connectable="0" vertex="1">
          <mxGeometry x="1" relative="1" as="geometry" />
        </mxCell>
        <mxCell id="6qefKc0W0BFcvtpMO_tD-24" value="&lt;span style=&quot;border-bottom: 1px dotted&quot;&gt;Data&lt;/span&gt;" style="ellipse;whiteSpace=wrap;html=1;align=center;" parent="1" vertex="1">
          <mxGeometry x="920" y="840" width="100" height="40" as="geometry" />
        </mxCell>
        <mxCell id="6qefKc0W0BFcvtpMO_tD-25" value="&lt;span style=&quot;border-bottom: 1px dotted&quot;&gt;tipo&lt;/span&gt;" style="ellipse;whiteSpace=wrap;html=1;align=center;" parent="1" vertex="1">
          <mxGeometry x="960" y="920" width="100" height="40" as="geometry" />
        </mxCell>
        <mxCell id="6qefKc0W0BFcvtpMO_tD-26" value="valor" style="ellipse;whiteSpace=wrap;html=1;align=center;" parent="1" vertex="1">
          <mxGeometry x="960" y="1000" width="100" height="40" as="geometry" />
        </mxCell>
        <mxCell id="6qefKc0W0BFcvtpMO_tD-27" value="" style="endArrow=none;html=1;rounded=0;entryX=0.01;entryY=0.75;entryDx=0;entryDy=0;entryPerimeter=0;exitX=1;exitY=0.25;exitDx=0;exitDy=0;" parent="1" source="6qefKc0W0BFcvtpMO_tD-21" target="6qefKc0W0BFcvtpMO_tD-24" edge="1">
          <mxGeometry relative="1" as="geometry">
            <mxPoint x="740" y="900" as="sourcePoint" />
            <mxPoint x="900" y="900" as="targetPoint" />
          </mxGeometry>
        </mxCell>
        <mxCell id="6qefKc0W0BFcvtpMO_tD-29" value="" style="endArrow=none;html=1;rounded=0;entryX=0;entryY=0.5;entryDx=0;entryDy=0;exitX=1;exitY=0.5;exitDx=0;exitDy=0;" parent="1" source="6qefKc0W0BFcvtpMO_tD-21" target="6qefKc0W0BFcvtpMO_tD-25" edge="1">
          <mxGeometry relative="1" as="geometry">
            <mxPoint x="770" y="970" as="sourcePoint" />
            <mxPoint x="930" y="970" as="targetPoint" />
          </mxGeometry>
        </mxCell>
        <mxCell id="6qefKc0W0BFcvtpMO_tD-30" value="" style="endArrow=none;html=1;rounded=0;entryX=0;entryY=0.25;entryDx=0;entryDy=0;entryPerimeter=0;exitX=0.75;exitY=1;exitDx=0;exitDy=0;" parent="1" source="6qefKc0W0BFcvtpMO_tD-21" target="6qefKc0W0BFcvtpMO_tD-26" edge="1">
          <mxGeometry relative="1" as="geometry">
            <mxPoint x="740" y="830" as="sourcePoint" />
            <mxPoint x="900" y="830" as="targetPoint" />
          </mxGeometry>
        </mxCell>
        <mxCell id="6qefKc0W0BFcvtpMO_tD-33" value="" style="endArrow=none;html=1;rounded=0;exitX=0.42;exitY=1.025;exitDx=0;exitDy=0;exitPerimeter=0;entryX=0.5;entryY=0;entryDx=0;entryDy=0;" parent="1" source="rRCzJtvxpl4aAJUOXlck-29" target="6qefKc0W0BFcvtpMO_tD-41" edge="1">
          <mxGeometry relative="1" as="geometry">
            <mxPoint x="500" y="730" as="sourcePoint" />
            <mxPoint x="440" y="700" as="targetPoint" />
          </mxGeometry>
        </mxCell>
        <mxCell id="6qefKc0W0BFcvtpMO_tD-34" value="1" style="resizable=0;html=1;align=right;verticalAlign=bottom;" parent="6qefKc0W0BFcvtpMO_tD-33" connectable="0" vertex="1">
          <mxGeometry x="1" relative="1" as="geometry" />
        </mxCell>
        <mxCell id="6qefKc0W0BFcvtpMO_tD-41" value="tem" style="shape=rhombus;perimeter=rhombusPerimeter;whiteSpace=wrap;html=1;align=center;" parent="1" vertex="1">
          <mxGeometry x="380" y="680" width="120" height="60" as="geometry" />
        </mxCell>
        <mxCell id="6qefKc0W0BFcvtpMO_tD-42" value="Particular" style="rounded=1;arcSize=10;whiteSpace=wrap;html=1;align=center;" parent="1" vertex="1">
          <mxGeometry x="390" y="800" width="100" height="40" as="geometry" />
        </mxCell>
        <mxCell id="6qefKc0W0BFcvtpMO_tD-47" value="" style="endArrow=none;html=1;rounded=0;exitX=0.5;exitY=1;exitDx=0;exitDy=0;entryX=0.5;entryY=0;entryDx=0;entryDy=0;" parent="1" source="6qefKc0W0BFcvtpMO_tD-41" target="6qefKc0W0BFcvtpMO_tD-42" edge="1">
          <mxGeometry relative="1" as="geometry">
            <mxPoint x="500" y="830" as="sourcePoint" />
            <mxPoint x="660" y="830" as="targetPoint" />
          </mxGeometry>
        </mxCell>
        <mxCell id="6qefKc0W0BFcvtpMO_tD-48" value="N" style="resizable=0;html=1;align=right;verticalAlign=bottom;" parent="6qefKc0W0BFcvtpMO_tD-47" connectable="0" vertex="1">
          <mxGeometry x="1" relative="1" as="geometry" />
        </mxCell>
        <mxCell id="6qefKc0W0BFcvtpMO_tD-50" value="d" style="ellipse;whiteSpace=wrap;html=1;align=center;" parent="1" vertex="1">
          <mxGeometry x="420" y="890" width="40" height="40" as="geometry" />
        </mxCell>
        <mxCell id="6qefKc0W0BFcvtpMO_tD-51" value="" style="shape=link;html=1;rounded=0;entryX=0.5;entryY=0;entryDx=0;entryDy=0;exitX=0.5;exitY=1;exitDx=0;exitDy=0;" parent="1" source="6qefKc0W0BFcvtpMO_tD-42" target="6qefKc0W0BFcvtpMO_tD-50" edge="1">
          <mxGeometry relative="1" as="geometry">
            <mxPoint x="440" y="870" as="sourcePoint" />
            <mxPoint x="660" y="1030" as="targetPoint" />
          </mxGeometry>
        </mxCell>
        <mxCell id="6qefKc0W0BFcvtpMO_tD-55" value="Saúde" style="whiteSpace=wrap;html=1;align=center;" parent="1" vertex="1">
          <mxGeometry x="180" y="840" width="100" height="40" as="geometry" />
        </mxCell>
        <mxCell id="6qefKc0W0BFcvtpMO_tD-56" value="cartões e banco" style="whiteSpace=wrap;html=1;align=center;" parent="1" vertex="1">
          <mxGeometry x="180" y="960" width="100" height="40" as="geometry" />
        </mxCell>
        <mxCell id="6qefKc0W0BFcvtpMO_tD-57" value="compras e lazer" style="whiteSpace=wrap;html=1;align=center;" parent="1" vertex="1">
          <mxGeometry x="330" y="1040" width="100" height="40" as="geometry" />
        </mxCell>
        <mxCell id="6qefKc0W0BFcvtpMO_tD-58" value="pagamento" style="whiteSpace=wrap;html=1;align=center;" parent="1" vertex="1">
          <mxGeometry x="500" y="1040" width="100" height="40" as="geometry" />
        </mxCell>
        <mxCell id="6qefKc0W0BFcvtpMO_tD-60" value="" style="endArrow=none;html=1;rounded=0;exitX=0;exitY=0.5;exitDx=0;exitDy=0;entryX=1;entryY=0.5;entryDx=0;entryDy=0;" parent="1" source="6qefKc0W0BFcvtpMO_tD-50" target="6qefKc0W0BFcvtpMO_tD-55" edge="1">
          <mxGeometry relative="1" as="geometry">
            <mxPoint x="530" y="930" as="sourcePoint" />
            <mxPoint x="690" y="930" as="targetPoint" />
          </mxGeometry>
        </mxCell>
        <mxCell id="6qefKc0W0BFcvtpMO_tD-61" value="" style="endArrow=none;html=1;rounded=0;exitX=0;exitY=1;exitDx=0;exitDy=0;entryX=1;entryY=0.5;entryDx=0;entryDy=0;" parent="1" source="6qefKc0W0BFcvtpMO_tD-50" target="6qefKc0W0BFcvtpMO_tD-56" edge="1">
          <mxGeometry relative="1" as="geometry">
            <mxPoint x="430" y="910" as="sourcePoint" />
            <mxPoint x="290" y="870" as="targetPoint" />
          </mxGeometry>
        </mxCell>
        <mxCell id="6qefKc0W0BFcvtpMO_tD-62" value="" style="endArrow=none;html=1;rounded=0;entryX=0.5;entryY=0;entryDx=0;entryDy=0;exitX=0.35;exitY=1.025;exitDx=0;exitDy=0;exitPerimeter=0;" parent="1" source="6qefKc0W0BFcvtpMO_tD-50" target="6qefKc0W0BFcvtpMO_tD-57" edge="1">
          <mxGeometry relative="1" as="geometry">
            <mxPoint x="440" y="920" as="sourcePoint" />
            <mxPoint x="300" y="880" as="targetPoint" />
          </mxGeometry>
        </mxCell>
        <mxCell id="6qefKc0W0BFcvtpMO_tD-63" value="" style="endArrow=none;html=1;rounded=0;exitX=0.43;exitY=-0.05;exitDx=0;exitDy=0;entryX=0.7;entryY=1.025;entryDx=0;entryDy=0;exitPerimeter=0;entryPerimeter=0;" parent="1" source="6qefKc0W0BFcvtpMO_tD-58" target="6qefKc0W0BFcvtpMO_tD-50" edge="1">
          <mxGeometry relative="1" as="geometry">
            <mxPoint x="450" y="930" as="sourcePoint" />
            <mxPoint x="310" y="890" as="targetPoint" />
          </mxGeometry>
        </mxCell>
        <mxCell id="6qefKc0W0BFcvtpMO_tD-65" style="edgeStyle=orthogonalEdgeStyle;rounded=0;orthogonalLoop=1;jettySize=auto;html=1;exitX=0.5;exitY=1;exitDx=0;exitDy=0;" parent="1" edge="1">
          <mxGeometry relative="1" as="geometry">
            <mxPoint x="590" y="960" as="sourcePoint" />
            <mxPoint x="590" y="960" as="targetPoint" />
          </mxGeometry>
        </mxCell>
        <mxCell id="6qefKc0W0BFcvtpMO_tD-66" value="identificador" style="ellipse;whiteSpace=wrap;html=1;align=center;fontStyle=4;" parent="1" vertex="1">
          <mxGeometry x="80" y="760" width="100" height="40" as="geometry" />
        </mxCell>
        <mxCell id="6qefKc0W0BFcvtpMO_tD-67" value="" style="endArrow=none;html=1;rounded=0;exitX=1;exitY=1;exitDx=0;exitDy=0;entryX=0.25;entryY=0;entryDx=0;entryDy=0;" parent="1" source="6qefKc0W0BFcvtpMO_tD-66" target="6qefKc0W0BFcvtpMO_tD-55" edge="1">
          <mxGeometry relative="1" as="geometry">
            <mxPoint x="70" y="899.5" as="sourcePoint" />
            <mxPoint x="230" y="899.5" as="targetPoint" />
          </mxGeometry>
        </mxCell>
        <mxCell id="6qefKc0W0BFcvtpMO_tD-69" value="valor&lt;span style=&quot;color: rgba(0 , 0 , 0 , 0) ; font-family: monospace ; font-size: 0px&quot;&gt;%3CmxGraphModel%3E%3Croot%3E%3CmxCell%20id%3D%220%22%2F%3E%3CmxCell%20id%3D%221%22%20parent%3D%220%22%2F%3E%3CmxCell%20id%3D%222%22%20value%3D%22%22%20style%3D%22endArrow%3Dnone%3Bhtml%3D1%3Brounded%3D0%3B%22%20edge%3D%221%22%20parent%3D%221%22%3E%3CmxGeometry%20relative%3D%221%22%20as%3D%22geometry%22%3E%3CmxPoint%20x%3D%2270%22%20y%3D%22899.5%22%20as%3D%22sourcePoint%22%2F%3E%3CmxPoint%20x%3D%22230%22%20y%3D%22899.5%22%20as%3D%22targetPoint%22%2F%3E%3C%2FmxGeometry%3E%3C%2FmxCell%3E%3C%2Froot%3E%3C%2FmxGraphModel%3E&lt;/span&gt;" style="ellipse;whiteSpace=wrap;html=1;align=center;" parent="1" vertex="1">
          <mxGeometry x="540" y="790" width="100" height="40" as="geometry" />
        </mxCell>
        <mxCell id="6qefKc0W0BFcvtpMO_tD-70" value="" style="endArrow=none;html=1;rounded=0;entryX=0;entryY=0.5;entryDx=0;entryDy=0;exitX=1;exitY=0.5;exitDx=0;exitDy=0;" parent="1" source="6qefKc0W0BFcvtpMO_tD-42" target="6qefKc0W0BFcvtpMO_tD-69" edge="1">
          <mxGeometry relative="1" as="geometry">
            <mxPoint x="90" y="919.5" as="sourcePoint" />
            <mxPoint x="250" y="919.5" as="targetPoint" />
          </mxGeometry>
        </mxCell>
        <mxCell id="6qefKc0W0BFcvtpMO_tD-71" value="número" style="ellipse;whiteSpace=wrap;html=1;align=center;fontStyle=4;" parent="1" vertex="1">
          <mxGeometry x="20" y="960" width="100" height="40" as="geometry" />
        </mxCell>
        <mxCell id="6qefKc0W0BFcvtpMO_tD-72" value="" style="endArrow=none;html=1;rounded=0;exitX=1;exitY=0.5;exitDx=0;exitDy=0;entryX=0;entryY=0.5;entryDx=0;entryDy=0;" parent="1" source="6qefKc0W0BFcvtpMO_tD-71" target="6qefKc0W0BFcvtpMO_tD-56" edge="1">
          <mxGeometry relative="1" as="geometry">
            <mxPoint x="280" y="930" as="sourcePoint" />
            <mxPoint x="440" y="930" as="targetPoint" />
          </mxGeometry>
        </mxCell>
        <mxCell id="6qefKc0W0BFcvtpMO_tD-73" value="data" style="ellipse;whiteSpace=wrap;html=1;align=center;" parent="1" vertex="1">
          <mxGeometry x="540" y="840" width="100" height="40" as="geometry" />
        </mxCell>
        <mxCell id="6qefKc0W0BFcvtpMO_tD-74" value="" style="endArrow=none;html=1;rounded=0;exitX=1;exitY=0.75;exitDx=0;exitDy=0;entryX=0;entryY=0.5;entryDx=0;entryDy=0;" parent="1" source="6qefKc0W0BFcvtpMO_tD-42" target="6qefKc0W0BFcvtpMO_tD-73" edge="1">
          <mxGeometry relative="1" as="geometry">
            <mxPoint x="410" y="930" as="sourcePoint" />
            <mxPoint x="570" y="930" as="targetPoint" />
          </mxGeometry>
        </mxCell>
        <mxCell id="6qefKc0W0BFcvtpMO_tD-75" value="descrição" style="ellipse;whiteSpace=wrap;html=1;align=center;" parent="1" vertex="1">
          <mxGeometry x="540" y="740" width="100" height="40" as="geometry" />
        </mxCell>
        <mxCell id="6qefKc0W0BFcvtpMO_tD-76" value="" style="endArrow=none;html=1;rounded=0;exitX=0;exitY=0.5;exitDx=0;exitDy=0;entryX=1;entryY=0.25;entryDx=0;entryDy=0;" parent="1" source="6qefKc0W0BFcvtpMO_tD-75" target="6qefKc0W0BFcvtpMO_tD-42" edge="1">
          <mxGeometry relative="1" as="geometry">
            <mxPoint x="390" y="930" as="sourcePoint" />
            <mxPoint x="550" y="930" as="targetPoint" />
          </mxGeometry>
        </mxCell>
        <mxCell id="6qefKc0W0BFcvtpMO_tD-77" value="produto" style="ellipse;whiteSpace=wrap;html=1;align=center;fontStyle=4;" parent="1" vertex="1">
          <mxGeometry x="180" y="1040" width="100" height="40" as="geometry" />
        </mxCell>
        <mxCell id="6qefKc0W0BFcvtpMO_tD-78" value="" style="endArrow=none;html=1;rounded=0;entryX=0;entryY=0.5;entryDx=0;entryDy=0;" parent="1" source="6qefKc0W0BFcvtpMO_tD-77" target="6qefKc0W0BFcvtpMO_tD-57" edge="1">
          <mxGeometry relative="1" as="geometry">
            <mxPoint x="410" y="1030" as="sourcePoint" />
            <mxPoint x="570" y="1030" as="targetPoint" />
          </mxGeometry>
        </mxCell>
        <mxCell id="6qefKc0W0BFcvtpMO_tD-80" value="tipo" style="ellipse;whiteSpace=wrap;html=1;align=center;fontStyle=4;" parent="1" vertex="1">
          <mxGeometry x="640" y="1040" width="100" height="40" as="geometry" />
        </mxCell>
        <mxCell id="6qefKc0W0BFcvtpMO_tD-81" value="" style="endArrow=none;html=1;rounded=0;entryX=0;entryY=0.5;entryDx=0;entryDy=0;exitX=1;exitY=0.5;exitDx=0;exitDy=0;" parent="1" source="6qefKc0W0BFcvtpMO_tD-58" target="6qefKc0W0BFcvtpMO_tD-80" edge="1">
          <mxGeometry relative="1" as="geometry">
            <mxPoint x="600" y="1060" as="sourcePoint" />
            <mxPoint x="340" y="1070" as="targetPoint" />
          </mxGeometry>
        </mxCell>
        <mxCell id="o0leJxbt58fI-15Nete2-3" value="fiscaliza" style="shape=rhombus;perimeter=rhombusPerimeter;whiteSpace=wrap;html=1;align=center;" vertex="1" parent="1">
          <mxGeometry x="-770" y="180" width="120" height="60" as="geometry" />
        </mxCell>
        <mxCell id="o0leJxbt58fI-15Nete2-5" value="Matéria prima" style="whiteSpace=wrap;html=1;align=center;" vertex="1" parent="1">
          <mxGeometry x="-950" y="-180" width="100" height="40" as="geometry" />
        </mxCell>
        <mxCell id="o0leJxbt58fI-15Nete2-8" value="Preço" style="ellipse;whiteSpace=wrap;html=1;align=center;" vertex="1" parent="1">
          <mxGeometry x="-910" y="-340" width="100" height="40" as="geometry" />
        </mxCell>
        <mxCell id="o0leJxbt58fI-15Nete2-12" value="Data de compra" style="ellipse;whiteSpace=wrap;html=1;align=center;fontStyle=4;" vertex="1" parent="1">
          <mxGeometry x="-1030" y="-310" width="100" height="40" as="geometry" />
        </mxCell>
        <mxCell id="o0leJxbt58fI-15Nete2-14" value="" style="endArrow=none;html=1;rounded=0;entryX=0.5;entryY=1;entryDx=0;entryDy=0;exitX=0.75;exitY=0;exitDx=0;exitDy=0;" edge="1" parent="1" source="o0leJxbt58fI-15Nete2-5" target="o0leJxbt58fI-15Nete2-41">
          <mxGeometry relative="1" as="geometry">
            <mxPoint x="-410" y="650" as="sourcePoint" />
            <mxPoint x="-977" y="401" as="targetPoint" />
          </mxGeometry>
        </mxCell>
        <mxCell id="o0leJxbt58fI-15Nete2-15" value="" style="endArrow=none;html=1;rounded=0;exitX=0.43;exitY=1.05;exitDx=0;exitDy=0;exitPerimeter=0;entryX=0.5;entryY=0;entryDx=0;entryDy=0;" edge="1" parent="1" source="o0leJxbt58fI-15Nete2-8" target="o0leJxbt58fI-15Nete2-5">
          <mxGeometry relative="1" as="geometry">
            <mxPoint x="-410" y="650" as="sourcePoint" />
            <mxPoint x="-250" y="650" as="targetPoint" />
          </mxGeometry>
        </mxCell>
        <mxCell id="o0leJxbt58fI-15Nete2-16" value="" style="endArrow=none;html=1;rounded=0;exitX=0.97;exitY=0.8;exitDx=0;exitDy=0;exitPerimeter=0;entryX=0.25;entryY=0;entryDx=0;entryDy=0;" edge="1" parent="1" source="o0leJxbt58fI-15Nete2-12" target="o0leJxbt58fI-15Nete2-5">
          <mxGeometry relative="1" as="geometry">
            <mxPoint x="-410" y="650" as="sourcePoint" />
            <mxPoint x="-250" y="650" as="targetPoint" />
          </mxGeometry>
        </mxCell>
        <mxCell id="o0leJxbt58fI-15Nete2-17" value="" style="endArrow=none;html=1;rounded=0;exitX=1;exitY=0.5;exitDx=0;exitDy=0;entryX=0;entryY=0.5;entryDx=0;entryDy=0;" edge="1" parent="1" source="o0leJxbt58fI-15Nete2-43" target="o0leJxbt58fI-15Nete2-5">
          <mxGeometry relative="1" as="geometry">
            <mxPoint x="-1140" y="500" as="sourcePoint" />
            <mxPoint x="-250" y="650" as="targetPoint" />
          </mxGeometry>
        </mxCell>
        <mxCell id="o0leJxbt58fI-15Nete2-18" value="" style="endArrow=none;html=1;rounded=0;exitX=0.442;exitY=0;exitDx=0;exitDy=0;entryX=1;entryY=0.5;entryDx=0;entryDy=0;exitPerimeter=0;" edge="1" parent="1" source="o0leJxbt58fI-15Nete2-3" target="o0leJxbt58fI-15Nete2-5">
          <mxGeometry relative="1" as="geometry">
            <mxPoint x="-240" y="660" as="sourcePoint" />
            <mxPoint x="-340" y="660" as="targetPoint" />
          </mxGeometry>
        </mxCell>
        <mxCell id="o0leJxbt58fI-15Nete2-19" value="N" style="resizable=0;html=1;align=right;verticalAlign=bottom;" connectable="0" vertex="1" parent="o0leJxbt58fI-15Nete2-18">
          <mxGeometry x="1" relative="1" as="geometry">
            <mxPoint x="39.96" y="69.89999999999999" as="offset" />
          </mxGeometry>
        </mxCell>
        <mxCell id="o0leJxbt58fI-15Nete2-22" value="" style="endArrow=none;html=1;rounded=0;entryX=0;entryY=0.5;entryDx=0;entryDy=0;exitX=0.5;exitY=1;exitDx=0;exitDy=0;" edge="1" parent="1" source="o0leJxbt58fI-15Nete2-3" target="rRCzJtvxpl4aAJUOXlck-27">
          <mxGeometry relative="1" as="geometry">
            <mxPoint x="-200" y="550" as="sourcePoint" />
            <mxPoint x="-80" y="590" as="targetPoint" />
          </mxGeometry>
        </mxCell>
        <mxCell id="o0leJxbt58fI-15Nete2-23" value="N" style="resizable=0;html=1;align=right;verticalAlign=bottom;" connectable="0" vertex="1" parent="o0leJxbt58fI-15Nete2-22">
          <mxGeometry x="1" relative="1" as="geometry">
            <mxPoint x="-29.74" y="-49.99999999999999" as="offset" />
          </mxGeometry>
        </mxCell>
        <mxCell id="o0leJxbt58fI-15Nete2-25" value="" style="endArrow=none;html=1;rounded=0;exitX=1;exitY=0.5;exitDx=0;exitDy=0;entryX=0;entryY=0.75;entryDx=0;entryDy=0;" edge="1" parent="1" source="o0leJxbt58fI-15Nete2-42" target="o0leJxbt58fI-15Nete2-5">
          <mxGeometry relative="1" as="geometry">
            <mxPoint x="-1140" y="560" as="sourcePoint" />
            <mxPoint x="-230" y="550" as="targetPoint" />
          </mxGeometry>
        </mxCell>
        <mxCell id="o0leJxbt58fI-15Nete2-39" value="data de validade" style="ellipse;whiteSpace=wrap;html=1;align=center;" vertex="1" parent="1">
          <mxGeometry x="-1230" y="-130" width="100" height="40" as="geometry" />
        </mxCell>
        <mxCell id="o0leJxbt58fI-15Nete2-40" value="" style="endArrow=none;html=1;rounded=0;exitX=1.01;exitY=0.35;exitDx=0;exitDy=0;entryX=0;entryY=1;entryDx=0;entryDy=0;exitPerimeter=0;" edge="1" parent="1" source="o0leJxbt58fI-15Nete2-39" target="o0leJxbt58fI-15Nete2-5">
          <mxGeometry relative="1" as="geometry">
            <mxPoint x="-900" y="570" as="sourcePoint" />
            <mxPoint x="-1000" y="560" as="targetPoint" />
          </mxGeometry>
        </mxCell>
        <mxCell id="o0leJxbt58fI-15Nete2-41" value="tipo" style="ellipse;whiteSpace=wrap;html=1;align=center;fontStyle=4;" vertex="1" parent="1">
          <mxGeometry x="-790" y="-330" width="100" height="40" as="geometry" />
        </mxCell>
        <mxCell id="o0leJxbt58fI-15Nete2-42" value="fornecedor" style="ellipse;whiteSpace=wrap;html=1;align=center;fontStyle=4;" vertex="1" parent="1">
          <mxGeometry x="-1180" y="-200" width="100" height="40" as="geometry" />
        </mxCell>
        <mxCell id="o0leJxbt58fI-15Nete2-43" value="chave aleatória" style="ellipse;whiteSpace=wrap;html=1;align=center;fontStyle=4;" vertex="1" parent="1">
          <mxGeometry x="-1140" y="-260" width="100" height="40" as="geometry" />
        </mxCell>
        <mxCell id="o0leJxbt58fI-15Nete2-44" value="data de uso" style="ellipse;whiteSpace=wrap;html=1;align=center;" vertex="1" parent="1">
          <mxGeometry x="-1130" y="-60" width="100" height="40" as="geometry" />
        </mxCell>
        <mxCell id="o0leJxbt58fI-15Nete2-45" value="" style="endArrow=none;html=1;rounded=0;exitX=0.5;exitY=0;exitDx=0;exitDy=0;entryX=0.25;entryY=1;entryDx=0;entryDy=0;" edge="1" parent="1" source="o0leJxbt58fI-15Nete2-44" target="o0leJxbt58fI-15Nete2-5">
          <mxGeometry relative="1" as="geometry">
            <mxPoint x="-880" y="570" as="sourcePoint" />
            <mxPoint x="-720" y="570" as="targetPoint" />
          </mxGeometry>
        </mxCell>
        <mxCell id="o0leJxbt58fI-15Nete2-46" value="Material de limpeza" style="whiteSpace=wrap;html=1;align=center;" vertex="1" parent="1">
          <mxGeometry x="-1630" y="520" width="100" height="40" as="geometry" />
        </mxCell>
        <mxCell id="o0leJxbt58fI-15Nete2-47" value="armazena" style="shape=rhombus;perimeter=rhombusPerimeter;whiteSpace=wrap;html=1;align=center;" vertex="1" parent="1">
          <mxGeometry x="-1270" y="510" width="120" height="60" as="geometry" />
        </mxCell>
        <mxCell id="o0leJxbt58fI-15Nete2-49" value="" style="endArrow=none;html=1;rounded=0;exitX=1;exitY=0;exitDx=0;exitDy=0;entryX=0;entryY=1;entryDx=0;entryDy=0;" edge="1" parent="1" source="o0leJxbt58fI-15Nete2-47" target="rRCzJtvxpl4aAJUOXlck-27">
          <mxGeometry relative="1" as="geometry">
            <mxPoint x="-880" y="660" as="sourcePoint" />
            <mxPoint x="-720" y="660" as="targetPoint" />
          </mxGeometry>
        </mxCell>
        <mxCell id="o0leJxbt58fI-15Nete2-50" value="N" style="resizable=0;html=1;align=right;verticalAlign=bottom;" connectable="0" vertex="1" parent="o0leJxbt58fI-15Nete2-49">
          <mxGeometry x="1" relative="1" as="geometry">
            <mxPoint x="-69.57" y="-0.020000000000003126" as="offset" />
          </mxGeometry>
        </mxCell>
        <mxCell id="o0leJxbt58fI-15Nete2-53" value="" style="endArrow=none;html=1;rounded=0;entryX=1;entryY=0.25;entryDx=0;entryDy=0;" edge="1" parent="1" source="o0leJxbt58fI-15Nete2-47" target="o0leJxbt58fI-15Nete2-46">
          <mxGeometry relative="1" as="geometry">
            <mxPoint x="-880" y="660" as="sourcePoint" />
            <mxPoint x="-720" y="660" as="targetPoint" />
          </mxGeometry>
        </mxCell>
        <mxCell id="o0leJxbt58fI-15Nete2-54" value="N" style="resizable=0;html=1;align=right;verticalAlign=bottom;" connectable="0" vertex="1" parent="o0leJxbt58fI-15Nete2-53">
          <mxGeometry x="1" relative="1" as="geometry">
            <mxPoint x="20.34" y="-10.17" as="offset" />
          </mxGeometry>
        </mxCell>
        <mxCell id="o0leJxbt58fI-15Nete2-55" value="tipo" style="ellipse;whiteSpace=wrap;html=1;align=center;fontStyle=4;" vertex="1" parent="1">
          <mxGeometry x="-1790" y="400" width="100" height="40" as="geometry" />
        </mxCell>
        <mxCell id="o0leJxbt58fI-15Nete2-56" value="Preço" style="ellipse;whiteSpace=wrap;html=1;align=center;" vertex="1" parent="1">
          <mxGeometry x="-1800" y="470" width="100" height="40" as="geometry" />
        </mxCell>
        <mxCell id="o0leJxbt58fI-15Nete2-57" value="Data de compra" style="ellipse;whiteSpace=wrap;html=1;align=center;fontStyle=4;" vertex="1" parent="1">
          <mxGeometry x="-1800" y="530" width="100" height="40" as="geometry" />
        </mxCell>
        <mxCell id="o0leJxbt58fI-15Nete2-58" value="chave aleatória" style="ellipse;whiteSpace=wrap;html=1;align=center;fontStyle=4;" vertex="1" parent="1">
          <mxGeometry x="-1790" y="580" width="100" height="40" as="geometry" />
        </mxCell>
        <mxCell id="o0leJxbt58fI-15Nete2-59" value="data de uso" style="ellipse;whiteSpace=wrap;html=1;align=center;" vertex="1" parent="1">
          <mxGeometry x="-1700" y="640" width="100" height="40" as="geometry" />
        </mxCell>
        <mxCell id="o0leJxbt58fI-15Nete2-60" value="" style="endArrow=none;html=1;rounded=0;exitX=1;exitY=0.5;exitDx=0;exitDy=0;entryX=0.25;entryY=0;entryDx=0;entryDy=0;" edge="1" parent="1" source="o0leJxbt58fI-15Nete2-55" target="o0leJxbt58fI-15Nete2-46">
          <mxGeometry relative="1" as="geometry">
            <mxPoint x="-880" y="670" as="sourcePoint" />
            <mxPoint x="-720" y="670" as="targetPoint" />
          </mxGeometry>
        </mxCell>
        <mxCell id="o0leJxbt58fI-15Nete2-61" value="" style="endArrow=none;html=1;rounded=0;exitX=1;exitY=0.5;exitDx=0;exitDy=0;entryX=0;entryY=0;entryDx=0;entryDy=0;" edge="1" parent="1" source="o0leJxbt58fI-15Nete2-56" target="o0leJxbt58fI-15Nete2-46">
          <mxGeometry relative="1" as="geometry">
            <mxPoint x="-880" y="670" as="sourcePoint" />
            <mxPoint x="-720" y="670" as="targetPoint" />
          </mxGeometry>
        </mxCell>
        <mxCell id="o0leJxbt58fI-15Nete2-62" value="" style="endArrow=none;html=1;rounded=0;exitX=1;exitY=0.5;exitDx=0;exitDy=0;entryX=0;entryY=0.5;entryDx=0;entryDy=0;" edge="1" parent="1" source="o0leJxbt58fI-15Nete2-57" target="o0leJxbt58fI-15Nete2-46">
          <mxGeometry relative="1" as="geometry">
            <mxPoint x="-880" y="670" as="sourcePoint" />
            <mxPoint x="-720" y="670" as="targetPoint" />
          </mxGeometry>
        </mxCell>
        <mxCell id="o0leJxbt58fI-15Nete2-63" value="" style="endArrow=none;html=1;rounded=0;exitX=1;exitY=0.5;exitDx=0;exitDy=0;entryX=0;entryY=1;entryDx=0;entryDy=0;" edge="1" parent="1" source="o0leJxbt58fI-15Nete2-58" target="o0leJxbt58fI-15Nete2-46">
          <mxGeometry relative="1" as="geometry">
            <mxPoint x="-880" y="670" as="sourcePoint" />
            <mxPoint x="-720" y="670" as="targetPoint" />
          </mxGeometry>
        </mxCell>
        <mxCell id="o0leJxbt58fI-15Nete2-64" value="" style="endArrow=none;html=1;rounded=0;exitX=0.5;exitY=0;exitDx=0;exitDy=0;entryX=0.25;entryY=1;entryDx=0;entryDy=0;" edge="1" parent="1" source="o0leJxbt58fI-15Nete2-59" target="o0leJxbt58fI-15Nete2-46">
          <mxGeometry relative="1" as="geometry">
            <mxPoint x="-880" y="670" as="sourcePoint" />
            <mxPoint x="-720" y="670" as="targetPoint" />
          </mxGeometry>
        </mxCell>
        <mxCell id="o0leJxbt58fI-15Nete2-65" value="controla" style="shape=rhombus;perimeter=rhombusPerimeter;whiteSpace=wrap;html=1;align=center;" vertex="1" parent="1">
          <mxGeometry x="-920" y="640" width="120" height="60" as="geometry" />
        </mxCell>
        <mxCell id="o0leJxbt58fI-15Nete2-66" value="Material de limpeza" style="whiteSpace=wrap;html=1;align=center;" vertex="1" parent="1">
          <mxGeometry x="-1180" y="720" width="100" height="40" as="geometry" />
        </mxCell>
        <mxCell id="o0leJxbt58fI-15Nete2-67" value="tipo" style="ellipse;whiteSpace=wrap;html=1;align=center;fontStyle=4;" vertex="1" parent="1">
          <mxGeometry x="-1330" y="680" width="100" height="40" as="geometry" />
        </mxCell>
        <mxCell id="o0leJxbt58fI-15Nete2-68" value="Preço" style="ellipse;whiteSpace=wrap;html=1;align=center;" vertex="1" parent="1">
          <mxGeometry x="-1340" y="730" width="100" height="40" as="geometry" />
        </mxCell>
        <mxCell id="o0leJxbt58fI-15Nete2-69" value="Data de compra" style="ellipse;whiteSpace=wrap;html=1;align=center;fontStyle=4;" vertex="1" parent="1">
          <mxGeometry x="-1340" y="780" width="100" height="40" as="geometry" />
        </mxCell>
        <mxCell id="o0leJxbt58fI-15Nete2-70" value="chave aleatória" style="ellipse;whiteSpace=wrap;html=1;align=center;fontStyle=4;" vertex="1" parent="1">
          <mxGeometry x="-1220" y="810" width="100" height="40" as="geometry" />
        </mxCell>
        <mxCell id="o0leJxbt58fI-15Nete2-71" value="" style="endArrow=none;html=1;rounded=0;exitX=1;exitY=0.5;exitDx=0;exitDy=0;entryX=0;entryY=0;entryDx=0;entryDy=0;" edge="1" parent="1" source="o0leJxbt58fI-15Nete2-67" target="o0leJxbt58fI-15Nete2-66">
          <mxGeometry relative="1" as="geometry">
            <mxPoint x="-1140" y="640" as="sourcePoint" />
            <mxPoint x="-980" y="640" as="targetPoint" />
          </mxGeometry>
        </mxCell>
        <mxCell id="o0leJxbt58fI-15Nete2-72" value="" style="endArrow=none;html=1;rounded=0;exitX=1;exitY=0.5;exitDx=0;exitDy=0;entryX=0;entryY=0.5;entryDx=0;entryDy=0;" edge="1" parent="1" source="o0leJxbt58fI-15Nete2-68" target="o0leJxbt58fI-15Nete2-66">
          <mxGeometry relative="1" as="geometry">
            <mxPoint x="-1140" y="640" as="sourcePoint" />
            <mxPoint x="-980" y="640" as="targetPoint" />
          </mxGeometry>
        </mxCell>
        <mxCell id="o0leJxbt58fI-15Nete2-73" value="" style="endArrow=none;html=1;rounded=0;entryX=0;entryY=1;entryDx=0;entryDy=0;exitX=0.98;exitY=0.3;exitDx=0;exitDy=0;exitPerimeter=0;" edge="1" parent="1" source="o0leJxbt58fI-15Nete2-69" target="o0leJxbt58fI-15Nete2-66">
          <mxGeometry relative="1" as="geometry">
            <mxPoint x="-1200" y="791" as="sourcePoint" />
            <mxPoint x="-980" y="640" as="targetPoint" />
          </mxGeometry>
        </mxCell>
        <mxCell id="o0leJxbt58fI-15Nete2-74" value="" style="endArrow=none;html=1;rounded=0;exitX=0.5;exitY=0;exitDx=0;exitDy=0;entryX=0.25;entryY=1;entryDx=0;entryDy=0;" edge="1" parent="1" source="o0leJxbt58fI-15Nete2-70" target="o0leJxbt58fI-15Nete2-66">
          <mxGeometry relative="1" as="geometry">
            <mxPoint x="-1140" y="640" as="sourcePoint" />
            <mxPoint x="-980" y="640" as="targetPoint" />
          </mxGeometry>
        </mxCell>
        <mxCell id="o0leJxbt58fI-15Nete2-75" value="" style="endArrow=none;html=1;rounded=0;entryX=1;entryY=0.5;entryDx=0;entryDy=0;exitX=0;exitY=0.5;exitDx=0;exitDy=0;" edge="1" parent="1" source="o0leJxbt58fI-15Nete2-65" target="o0leJxbt58fI-15Nete2-66">
          <mxGeometry relative="1" as="geometry">
            <mxPoint x="-1140" y="640" as="sourcePoint" />
            <mxPoint x="-980" y="640" as="targetPoint" />
          </mxGeometry>
        </mxCell>
        <mxCell id="o0leJxbt58fI-15Nete2-76" value="N" style="resizable=0;html=1;align=right;verticalAlign=bottom;" connectable="0" vertex="1" parent="o0leJxbt58fI-15Nete2-75">
          <mxGeometry x="1" relative="1" as="geometry">
            <mxPoint x="40.35" y="-20.11" as="offset" />
          </mxGeometry>
        </mxCell>
        <mxCell id="o0leJxbt58fI-15Nete2-77" value="" style="endArrow=none;html=1;rounded=0;exitX=1;exitY=0.5;exitDx=0;exitDy=0;entryX=0.25;entryY=1;entryDx=0;entryDy=0;" edge="1" parent="1" source="o0leJxbt58fI-15Nete2-65" target="rRCzJtvxpl4aAJUOXlck-27">
          <mxGeometry relative="1" as="geometry">
            <mxPoint x="-1140" y="640" as="sourcePoint" />
            <mxPoint x="-660" y="610" as="targetPoint" />
          </mxGeometry>
        </mxCell>
        <mxCell id="o0leJxbt58fI-15Nete2-78" value="N" style="resizable=0;html=1;align=right;verticalAlign=bottom;" connectable="0" vertex="1" parent="o0leJxbt58fI-15Nete2-77">
          <mxGeometry x="1" relative="1" as="geometry">
            <mxPoint x="-55" y="30" as="offset" />
          </mxGeometry>
        </mxCell>
        <mxCell id="o0leJxbt58fI-15Nete2-79" value="contabiliza" style="shape=rhombus;perimeter=rhombusPerimeter;whiteSpace=wrap;html=1;align=center;" vertex="1" parent="1">
          <mxGeometry x="-830" y="760" width="120" height="60" as="geometry" />
        </mxCell>
        <mxCell id="o0leJxbt58fI-15Nete2-80" value="embalagem" style="whiteSpace=wrap;html=1;align=center;" vertex="1" parent="1">
          <mxGeometry x="-1160" y="920" width="100" height="40" as="geometry" />
        </mxCell>
        <mxCell id="o0leJxbt58fI-15Nete2-82" value="tipo" style="ellipse;whiteSpace=wrap;html=1;align=center;fontStyle=4;" vertex="1" parent="1">
          <mxGeometry x="-1300" y="880" width="100" height="40" as="geometry" />
        </mxCell>
        <mxCell id="o0leJxbt58fI-15Nete2-83" value="Preço" style="ellipse;whiteSpace=wrap;html=1;align=center;" vertex="1" parent="1">
          <mxGeometry x="-1340" y="940" width="100" height="40" as="geometry" />
        </mxCell>
        <mxCell id="o0leJxbt58fI-15Nete2-84" value="Data de compra" style="ellipse;whiteSpace=wrap;html=1;align=center;fontStyle=4;" vertex="1" parent="1">
          <mxGeometry x="-1320" y="990" width="100" height="40" as="geometry" />
        </mxCell>
        <mxCell id="o0leJxbt58fI-15Nete2-85" value="chave aleatória" style="ellipse;whiteSpace=wrap;html=1;align=center;fontStyle=4;" vertex="1" parent="1">
          <mxGeometry x="-1300" y="1060" width="100" height="40" as="geometry" />
        </mxCell>
        <mxCell id="o0leJxbt58fI-15Nete2-86" value="data de uso" style="ellipse;whiteSpace=wrap;html=1;align=center;" vertex="1" parent="1">
          <mxGeometry x="-1170" y="1060" width="100" height="40" as="geometry" />
        </mxCell>
        <mxCell id="o0leJxbt58fI-15Nete2-87" value="" style="endArrow=none;html=1;rounded=0;entryX=0;entryY=0;entryDx=0;entryDy=0;exitX=0.97;exitY=0.675;exitDx=0;exitDy=0;exitPerimeter=0;" edge="1" parent="1" source="o0leJxbt58fI-15Nete2-82" target="o0leJxbt58fI-15Nete2-80">
          <mxGeometry relative="1" as="geometry">
            <mxPoint x="-1350" y="1050" as="sourcePoint" />
            <mxPoint x="-1190" y="1050" as="targetPoint" />
          </mxGeometry>
        </mxCell>
        <mxCell id="o0leJxbt58fI-15Nete2-88" value="" style="endArrow=none;html=1;rounded=0;entryX=0;entryY=0.75;entryDx=0;entryDy=0;exitX=1;exitY=0.5;exitDx=0;exitDy=0;" edge="1" parent="1" source="o0leJxbt58fI-15Nete2-83" target="o0leJxbt58fI-15Nete2-80">
          <mxGeometry relative="1" as="geometry">
            <mxPoint x="-1350" y="1050" as="sourcePoint" />
            <mxPoint x="-1190" y="1050" as="targetPoint" />
          </mxGeometry>
        </mxCell>
        <mxCell id="o0leJxbt58fI-15Nete2-89" value="" style="endArrow=none;html=1;rounded=0;entryX=0;entryY=1;entryDx=0;entryDy=0;exitX=0.99;exitY=0.3;exitDx=0;exitDy=0;exitPerimeter=0;" edge="1" parent="1" source="o0leJxbt58fI-15Nete2-84" target="o0leJxbt58fI-15Nete2-80">
          <mxGeometry relative="1" as="geometry">
            <mxPoint x="-1350" y="1050" as="sourcePoint" />
            <mxPoint x="-1190" y="1050" as="targetPoint" />
          </mxGeometry>
        </mxCell>
        <mxCell id="o0leJxbt58fI-15Nete2-90" value="" style="endArrow=none;html=1;rounded=0;entryX=0.25;entryY=1;entryDx=0;entryDy=0;exitX=0.69;exitY=-0.05;exitDx=0;exitDy=0;exitPerimeter=0;" edge="1" parent="1" source="o0leJxbt58fI-15Nete2-85" target="o0leJxbt58fI-15Nete2-80">
          <mxGeometry relative="1" as="geometry">
            <mxPoint x="-1350" y="1050" as="sourcePoint" />
            <mxPoint x="-1190" y="1050" as="targetPoint" />
          </mxGeometry>
        </mxCell>
        <mxCell id="o0leJxbt58fI-15Nete2-91" value="" style="endArrow=none;html=1;rounded=0;entryX=0.5;entryY=1;entryDx=0;entryDy=0;exitX=0.5;exitY=0;exitDx=0;exitDy=0;" edge="1" parent="1" source="o0leJxbt58fI-15Nete2-86" target="o0leJxbt58fI-15Nete2-80">
          <mxGeometry relative="1" as="geometry">
            <mxPoint x="-1350" y="1050" as="sourcePoint" />
            <mxPoint x="-1190" y="1050" as="targetPoint" />
          </mxGeometry>
        </mxCell>
        <mxCell id="o0leJxbt58fI-15Nete2-92" value="" style="endArrow=none;html=1;rounded=0;entryX=1;entryY=0;entryDx=0;entryDy=0;exitX=0;exitY=0.5;exitDx=0;exitDy=0;" edge="1" parent="1" source="o0leJxbt58fI-15Nete2-79" target="o0leJxbt58fI-15Nete2-80">
          <mxGeometry relative="1" as="geometry">
            <mxPoint x="-890" y="840" as="sourcePoint" />
            <mxPoint x="-1190" y="1050" as="targetPoint" />
          </mxGeometry>
        </mxCell>
        <mxCell id="o0leJxbt58fI-15Nete2-93" value="N" style="resizable=0;html=1;align=right;verticalAlign=bottom;" connectable="0" vertex="1" parent="o0leJxbt58fI-15Nete2-92">
          <mxGeometry x="1" relative="1" as="geometry">
            <mxPoint x="29.83" y="-19.9" as="offset" />
          </mxGeometry>
        </mxCell>
        <mxCell id="o0leJxbt58fI-15Nete2-94" value="" style="endArrow=none;html=1;rounded=0;entryX=0.5;entryY=1;entryDx=0;entryDy=0;exitX=0.808;exitY=0.25;exitDx=0;exitDy=0;exitPerimeter=0;" edge="1" parent="1" source="o0leJxbt58fI-15Nete2-79" target="rRCzJtvxpl4aAJUOXlck-27">
          <mxGeometry relative="1" as="geometry">
            <mxPoint x="-1240" y="1000" as="sourcePoint" />
            <mxPoint x="-1080" y="1000" as="targetPoint" />
          </mxGeometry>
        </mxCell>
        <mxCell id="o0leJxbt58fI-15Nete2-95" value="N" style="resizable=0;html=1;align=right;verticalAlign=bottom;" connectable="0" vertex="1" parent="o0leJxbt58fI-15Nete2-94">
          <mxGeometry x="1" relative="1" as="geometry">
            <mxPoint x="-40.06" y="60.09" as="offset" />
          </mxGeometry>
        </mxCell>
        <mxCell id="o0leJxbt58fI-15Nete2-96" value="produz" style="shape=rhombus;perimeter=rhombusPerimeter;whiteSpace=wrap;html=1;align=center;" vertex="1" parent="1">
          <mxGeometry x="-810" y="960" width="120" height="60" as="geometry" />
        </mxCell>
        <mxCell id="o0leJxbt58fI-15Nete2-97" value="" style="endArrow=none;html=1;rounded=0;exitX=0.5;exitY=0;exitDx=0;exitDy=0;entryX=0.75;entryY=1;entryDx=0;entryDy=0;" edge="1" parent="1" source="o0leJxbt58fI-15Nete2-96" target="rRCzJtvxpl4aAJUOXlck-27">
          <mxGeometry relative="1" as="geometry">
            <mxPoint x="-440" y="760" as="sourcePoint" />
            <mxPoint x="-280" y="760" as="targetPoint" />
          </mxGeometry>
        </mxCell>
        <mxCell id="o0leJxbt58fI-15Nete2-98" value="N" style="resizable=0;html=1;align=right;verticalAlign=bottom;" connectable="0" vertex="1" parent="o0leJxbt58fI-15Nete2-97">
          <mxGeometry x="1" relative="1" as="geometry">
            <mxPoint x="-34.91" y="99.83" as="offset" />
          </mxGeometry>
        </mxCell>
        <mxCell id="o0leJxbt58fI-15Nete2-99" value="Produto" style="whiteSpace=wrap;html=1;align=center;" vertex="1" parent="1">
          <mxGeometry x="-1100" y="1280" width="100" height="40" as="geometry" />
        </mxCell>
        <mxCell id="o0leJxbt58fI-15Nete2-100" value="" style="endArrow=none;html=1;rounded=0;exitX=0.408;exitY=0.95;exitDx=0;exitDy=0;exitPerimeter=0;" edge="1" parent="1" source="o0leJxbt58fI-15Nete2-96" target="o0leJxbt58fI-15Nete2-99">
          <mxGeometry relative="1" as="geometry">
            <mxPoint x="-650" y="860" as="sourcePoint" />
            <mxPoint x="-620" y="990" as="targetPoint" />
          </mxGeometry>
        </mxCell>
        <mxCell id="o0leJxbt58fI-15Nete2-101" value="N" style="resizable=0;html=1;align=right;verticalAlign=bottom;" connectable="0" vertex="1" parent="o0leJxbt58fI-15Nete2-100">
          <mxGeometry x="1" relative="1" as="geometry">
            <mxPoint x="3.65" y="-19.96" as="offset" />
          </mxGeometry>
        </mxCell>
        <mxCell id="o0leJxbt58fI-15Nete2-102" value="validade" style="ellipse;whiteSpace=wrap;html=1;align=center;" vertex="1" parent="1">
          <mxGeometry x="-1240" y="1190" width="100" height="40" as="geometry" />
        </mxCell>
        <mxCell id="o0leJxbt58fI-15Nete2-103" value="tipo" style="ellipse;whiteSpace=wrap;html=1;align=center;fontStyle=4;" vertex="1" parent="1">
          <mxGeometry x="-1290" y="1260" width="100" height="40" as="geometry" />
        </mxCell>
        <mxCell id="o0leJxbt58fI-15Nete2-104" value="chave aleatória" style="ellipse;whiteSpace=wrap;html=1;align=center;fontStyle=4;" vertex="1" parent="1">
          <mxGeometry x="-1300" y="1320" width="100" height="40" as="geometry" />
        </mxCell>
        <mxCell id="o0leJxbt58fI-15Nete2-105" value="data de produção" style="ellipse;whiteSpace=wrap;html=1;align=center;fontStyle=4;" vertex="1" parent="1">
          <mxGeometry x="-1260" y="1400" width="100" height="40" as="geometry" />
        </mxCell>
        <mxCell id="o0leJxbt58fI-15Nete2-106" value="" style="endArrow=none;html=1;rounded=0;entryX=0.25;entryY=0;entryDx=0;entryDy=0;exitX=1;exitY=1;exitDx=0;exitDy=0;" edge="1" parent="1" source="o0leJxbt58fI-15Nete2-102" target="o0leJxbt58fI-15Nete2-99">
          <mxGeometry relative="1" as="geometry">
            <mxPoint x="-990" y="1060" as="sourcePoint" />
            <mxPoint x="-830" y="1060" as="targetPoint" />
          </mxGeometry>
        </mxCell>
        <mxCell id="o0leJxbt58fI-15Nete2-107" value="" style="endArrow=none;html=1;rounded=0;entryX=0;entryY=0;entryDx=0;entryDy=0;exitX=1;exitY=0.5;exitDx=0;exitDy=0;" edge="1" parent="1" source="o0leJxbt58fI-15Nete2-103" target="o0leJxbt58fI-15Nete2-99">
          <mxGeometry relative="1" as="geometry">
            <mxPoint x="-990" y="1060" as="sourcePoint" />
            <mxPoint x="-830" y="1060" as="targetPoint" />
          </mxGeometry>
        </mxCell>
        <mxCell id="o0leJxbt58fI-15Nete2-108" value="" style="endArrow=none;html=1;rounded=0;entryX=0;entryY=0.5;entryDx=0;entryDy=0;exitX=0.95;exitY=0.2;exitDx=0;exitDy=0;exitPerimeter=0;" edge="1" parent="1" source="o0leJxbt58fI-15Nete2-104" target="o0leJxbt58fI-15Nete2-99">
          <mxGeometry relative="1" as="geometry">
            <mxPoint x="-990" y="1060" as="sourcePoint" />
            <mxPoint x="-830" y="1060" as="targetPoint" />
          </mxGeometry>
        </mxCell>
        <mxCell id="o0leJxbt58fI-15Nete2-109" value="" style="endArrow=none;html=1;rounded=0;entryX=0.25;entryY=1;entryDx=0;entryDy=0;exitX=0.5;exitY=0;exitDx=0;exitDy=0;" edge="1" parent="1" source="o0leJxbt58fI-15Nete2-105" target="o0leJxbt58fI-15Nete2-99">
          <mxGeometry relative="1" as="geometry">
            <mxPoint x="-990" y="1060" as="sourcePoint" />
            <mxPoint x="-830" y="1060" as="targetPoint" />
          </mxGeometry>
        </mxCell>
        <mxCell id="o0leJxbt58fI-15Nete2-111" value="cadastra" style="shape=rhombus;perimeter=rhombusPerimeter;whiteSpace=wrap;html=1;align=center;" vertex="1" parent="1">
          <mxGeometry x="-520" y="750" width="120" height="60" as="geometry" />
        </mxCell>
        <mxCell id="o0leJxbt58fI-15Nete2-112" value="" style="endArrow=none;html=1;rounded=0;entryX=1;entryY=1;entryDx=0;entryDy=0;exitX=0.5;exitY=0;exitDx=0;exitDy=0;" edge="1" parent="1" source="o0leJxbt58fI-15Nete2-111" target="rRCzJtvxpl4aAJUOXlck-27">
          <mxGeometry relative="1" as="geometry">
            <mxPoint x="-420" y="590" as="sourcePoint" />
            <mxPoint x="-260" y="590" as="targetPoint" />
          </mxGeometry>
        </mxCell>
        <mxCell id="o0leJxbt58fI-15Nete2-113" value="N" style="resizable=0;html=1;align=right;verticalAlign=bottom;" connectable="0" vertex="1" parent="o0leJxbt58fI-15Nete2-112">
          <mxGeometry x="1" relative="1" as="geometry">
            <mxPoint x="19.92" y="64.55" as="offset" />
          </mxGeometry>
        </mxCell>
        <mxCell id="o0leJxbt58fI-15Nete2-114" value="Cliente" style="whiteSpace=wrap;html=1;align=center;" vertex="1" parent="1">
          <mxGeometry x="-400" y="1000" width="100" height="40" as="geometry" />
        </mxCell>
        <mxCell id="o0leJxbt58fI-15Nete2-115" value="" style="endArrow=none;html=1;rounded=0;entryX=0.5;entryY=0;entryDx=0;entryDy=0;exitX=0.5;exitY=1;exitDx=0;exitDy=0;" edge="1" parent="1" source="o0leJxbt58fI-15Nete2-111" target="o0leJxbt58fI-15Nete2-114">
          <mxGeometry relative="1" as="geometry">
            <mxPoint x="-740" y="790" as="sourcePoint" />
            <mxPoint x="-580" y="790" as="targetPoint" />
          </mxGeometry>
        </mxCell>
        <mxCell id="o0leJxbt58fI-15Nete2-116" value="N" style="resizable=0;html=1;align=right;verticalAlign=bottom;" connectable="0" vertex="1" parent="o0leJxbt58fI-15Nete2-115">
          <mxGeometry x="1" relative="1" as="geometry">
            <mxPoint x="-10.030000000000001" y="-40.269999999999996" as="offset" />
          </mxGeometry>
        </mxCell>
        <mxCell id="o0leJxbt58fI-15Nete2-117" value="Nome" style="ellipse;whiteSpace=wrap;html=1;align=center;" vertex="1" parent="1">
          <mxGeometry x="-330" y="880" width="100" height="40" as="geometry" />
        </mxCell>
        <mxCell id="o0leJxbt58fI-15Nete2-118" value="Endereço" style="ellipse;whiteSpace=wrap;html=1;align=center;" vertex="1" parent="1">
          <mxGeometry x="-240" y="930" width="100" height="40" as="geometry" />
        </mxCell>
        <mxCell id="o0leJxbt58fI-15Nete2-120" value="E-mail" style="ellipse;whiteSpace=wrap;html=1;align=center;" vertex="1" parent="1">
          <mxGeometry x="-250" y="990" width="100" height="40" as="geometry" />
        </mxCell>
        <mxCell id="o0leJxbt58fI-15Nete2-123" value="Telefone" style="ellipse;shape=doubleEllipse;margin=3;whiteSpace=wrap;html=1;align=center;" vertex="1" parent="1">
          <mxGeometry x="-260" y="1040" width="100" height="40" as="geometry" />
        </mxCell>
        <mxCell id="o0leJxbt58fI-15Nete2-124" value="" style="endArrow=none;html=1;rounded=0;exitX=0.75;exitY=0;exitDx=0;exitDy=0;entryX=0.5;entryY=1;entryDx=0;entryDy=0;" edge="1" parent="1" source="o0leJxbt58fI-15Nete2-114" target="o0leJxbt58fI-15Nete2-117">
          <mxGeometry relative="1" as="geometry">
            <mxPoint x="-260" y="990" as="sourcePoint" />
            <mxPoint x="-100" y="990" as="targetPoint" />
          </mxGeometry>
        </mxCell>
        <mxCell id="o0leJxbt58fI-15Nete2-125" value="" style="endArrow=none;html=1;rounded=0;entryX=0;entryY=0.75;entryDx=0;entryDy=0;entryPerimeter=0;exitX=0.75;exitY=0;exitDx=0;exitDy=0;" edge="1" parent="1" source="o0leJxbt58fI-15Nete2-114" target="o0leJxbt58fI-15Nete2-118">
          <mxGeometry relative="1" as="geometry">
            <mxPoint x="-260" y="990" as="sourcePoint" />
            <mxPoint x="-100" y="990" as="targetPoint" />
          </mxGeometry>
        </mxCell>
        <mxCell id="o0leJxbt58fI-15Nete2-127" value="" style="endArrow=none;html=1;rounded=0;entryX=0;entryY=0.5;entryDx=0;entryDy=0;exitX=1;exitY=0.25;exitDx=0;exitDy=0;" edge="1" parent="1" source="o0leJxbt58fI-15Nete2-114" target="o0leJxbt58fI-15Nete2-120">
          <mxGeometry relative="1" as="geometry">
            <mxPoint x="-260" y="990" as="sourcePoint" />
            <mxPoint x="-100" y="990" as="targetPoint" />
          </mxGeometry>
        </mxCell>
        <mxCell id="o0leJxbt58fI-15Nete2-128" value="" style="endArrow=none;html=1;rounded=0;entryX=0;entryY=0.25;entryDx=0;entryDy=0;entryPerimeter=0;exitX=1;exitY=0.75;exitDx=0;exitDy=0;" edge="1" parent="1" source="o0leJxbt58fI-15Nete2-114" target="o0leJxbt58fI-15Nete2-123">
          <mxGeometry relative="1" as="geometry">
            <mxPoint x="-260" y="990" as="sourcePoint" />
            <mxPoint x="-100" y="990" as="targetPoint" />
          </mxGeometry>
        </mxCell>
        <mxCell id="o0leJxbt58fI-15Nete2-129" value="CPF" style="ellipse;whiteSpace=wrap;html=1;align=center;fontStyle=4;" vertex="1" parent="1">
          <mxGeometry x="-500" y="920" width="100" height="40" as="geometry" />
        </mxCell>
        <mxCell id="o0leJxbt58fI-15Nete2-130" value="" style="endArrow=none;html=1;rounded=0;exitX=0.71;exitY=1.075;exitDx=0;exitDy=0;exitPerimeter=0;entryX=0;entryY=0;entryDx=0;entryDy=0;" edge="1" parent="1" source="o0leJxbt58fI-15Nete2-129" target="o0leJxbt58fI-15Nete2-114">
          <mxGeometry relative="1" as="geometry">
            <mxPoint x="-260" y="990" as="sourcePoint" />
            <mxPoint x="-100" y="990" as="targetPoint" />
          </mxGeometry>
        </mxCell>
        <mxCell id="o0leJxbt58fI-15Nete2-131" value="Cidade" style="ellipse;whiteSpace=wrap;html=1;align=center;" vertex="1" parent="1">
          <mxGeometry x="-230" y="820" width="100" height="40" as="geometry" />
        </mxCell>
        <mxCell id="o0leJxbt58fI-15Nete2-132" value="bairro" style="ellipse;whiteSpace=wrap;html=1;align=center;" vertex="1" parent="1">
          <mxGeometry x="-140" y="860" width="100" height="40" as="geometry" />
        </mxCell>
        <mxCell id="o0leJxbt58fI-15Nete2-133" value="rua e n°" style="ellipse;whiteSpace=wrap;html=1;align=center;" vertex="1" parent="1">
          <mxGeometry x="-110" y="910" width="100" height="40" as="geometry" />
        </mxCell>
        <mxCell id="o0leJxbt58fI-15Nete2-134" value="" style="endArrow=none;html=1;rounded=0;entryX=0.5;entryY=1;entryDx=0;entryDy=0;exitX=0.5;exitY=0;exitDx=0;exitDy=0;" edge="1" parent="1" source="o0leJxbt58fI-15Nete2-118" target="o0leJxbt58fI-15Nete2-131">
          <mxGeometry relative="1" as="geometry">
            <mxPoint x="-260" y="990" as="sourcePoint" />
            <mxPoint x="-100" y="990" as="targetPoint" />
          </mxGeometry>
        </mxCell>
        <mxCell id="o0leJxbt58fI-15Nete2-135" value="" style="endArrow=none;html=1;rounded=0;entryX=0;entryY=1;entryDx=0;entryDy=0;" edge="1" parent="1" target="o0leJxbt58fI-15Nete2-132">
          <mxGeometry relative="1" as="geometry">
            <mxPoint x="-170" y="930" as="sourcePoint" />
            <mxPoint x="-100" y="990" as="targetPoint" />
          </mxGeometry>
        </mxCell>
        <mxCell id="o0leJxbt58fI-15Nete2-136" value="" style="endArrow=none;html=1;rounded=0;entryX=0;entryY=0.5;entryDx=0;entryDy=0;" edge="1" parent="1" target="o0leJxbt58fI-15Nete2-133">
          <mxGeometry relative="1" as="geometry">
            <mxPoint x="-150" y="940" as="sourcePoint" />
            <mxPoint x="-100" y="990" as="targetPoint" />
          </mxGeometry>
        </mxCell>
        <mxCell id="o0leJxbt58fI-15Nete2-137" value="Compra" style="shape=rhombus;perimeter=rhombusPerimeter;whiteSpace=wrap;html=1;align=center;" vertex="1" parent="1">
          <mxGeometry x="-680" y="1200" width="120" height="60" as="geometry" />
        </mxCell>
        <mxCell id="o0leJxbt58fI-15Nete2-139" value="" style="endArrow=none;html=1;rounded=0;entryX=0.25;entryY=1;entryDx=0;entryDy=0;exitX=1;exitY=0.5;exitDx=0;exitDy=0;" edge="1" parent="1" source="o0leJxbt58fI-15Nete2-137" target="o0leJxbt58fI-15Nete2-114">
          <mxGeometry relative="1" as="geometry">
            <mxPoint x="-710" y="1190" as="sourcePoint" />
            <mxPoint x="-550" y="1190" as="targetPoint" />
          </mxGeometry>
        </mxCell>
        <mxCell id="o0leJxbt58fI-15Nete2-140" value="1" style="resizable=0;html=1;align=right;verticalAlign=bottom;" connectable="0" vertex="1" parent="o0leJxbt58fI-15Nete2-139">
          <mxGeometry x="1" relative="1" as="geometry">
            <mxPoint x="-44.870000000000005" y="49.86" as="offset" />
          </mxGeometry>
        </mxCell>
        <mxCell id="o0leJxbt58fI-15Nete2-141" value="" style="endArrow=none;html=1;rounded=0;entryX=1;entryY=0.5;entryDx=0;entryDy=0;exitX=0;exitY=0.5;exitDx=0;exitDy=0;" edge="1" parent="1" source="o0leJxbt58fI-15Nete2-137" target="o0leJxbt58fI-15Nete2-99">
          <mxGeometry relative="1" as="geometry">
            <mxPoint x="-710" y="1190" as="sourcePoint" />
            <mxPoint x="-550" y="1190" as="targetPoint" />
          </mxGeometry>
        </mxCell>
        <mxCell id="o0leJxbt58fI-15Nete2-142" value="N" style="resizable=0;html=1;align=right;verticalAlign=bottom;" connectable="0" vertex="1" parent="o0leJxbt58fI-15Nete2-141">
          <mxGeometry x="1" relative="1" as="geometry">
            <mxPoint x="90.42" y="-20.09" as="offset" />
          </mxGeometry>
        </mxCell>
        <mxCell id="o0leJxbt58fI-15Nete2-143" value="protocolo" style="ellipse;whiteSpace=wrap;html=1;align=center;" vertex="1" parent="1">
          <mxGeometry x="-1040" y="1360" width="100" height="40" as="geometry" />
        </mxCell>
        <mxCell id="o0leJxbt58fI-15Nete2-144" value="" style="endArrow=none;html=1;rounded=0;entryX=0.5;entryY=0;entryDx=0;entryDy=0;" edge="1" parent="1" source="o0leJxbt58fI-15Nete2-99" target="o0leJxbt58fI-15Nete2-143">
          <mxGeometry relative="1" as="geometry">
            <mxPoint x="-940" y="1290" as="sourcePoint" />
            <mxPoint x="-780" y="1290" as="targetPoint" />
          </mxGeometry>
        </mxCell>
        <mxCell id="o0leJxbt58fI-15Nete2-145" value="CPF comprador" style="ellipse;whiteSpace=wrap;html=1;align=center;" vertex="1" parent="1">
          <mxGeometry x="-1160" y="1480" width="100" height="40" as="geometry" />
        </mxCell>
        <mxCell id="o0leJxbt58fI-15Nete2-146" value="data de venda" style="ellipse;whiteSpace=wrap;html=1;align=center;" vertex="1" parent="1">
          <mxGeometry x="-1040" y="1480" width="100" height="40" as="geometry" />
        </mxCell>
        <mxCell id="o0leJxbt58fI-15Nete2-147" value="" style="endArrow=none;html=1;rounded=0;exitX=0.5;exitY=0;exitDx=0;exitDy=0;entryX=0;entryY=1;entryDx=0;entryDy=0;" edge="1" parent="1" source="o0leJxbt58fI-15Nete2-145" target="o0leJxbt58fI-15Nete2-143">
          <mxGeometry relative="1" as="geometry">
            <mxPoint x="-940" y="1390" as="sourcePoint" />
            <mxPoint x="-780" y="1390" as="targetPoint" />
          </mxGeometry>
        </mxCell>
        <mxCell id="o0leJxbt58fI-15Nete2-148" value="" style="endArrow=none;html=1;rounded=0;exitX=0.5;exitY=1;exitDx=0;exitDy=0;entryX=0.5;entryY=0;entryDx=0;entryDy=0;" edge="1" parent="1" source="o0leJxbt58fI-15Nete2-143" target="o0leJxbt58fI-15Nete2-146">
          <mxGeometry relative="1" as="geometry">
            <mxPoint x="-940" y="1390" as="sourcePoint" />
            <mxPoint x="-780" y="1390" as="targetPoint" />
          </mxGeometry>
        </mxCell>
        <mxCell id="o0leJxbt58fI-15Nete2-149" value="tem" style="shape=rhombus;perimeter=rhombusPerimeter;whiteSpace=wrap;html=1;align=center;" vertex="1" parent="1">
          <mxGeometry x="-400" y="540" width="120" height="60" as="geometry" />
        </mxCell>
        <mxCell id="o0leJxbt58fI-15Nete2-150" value="contas adm" style="whiteSpace=wrap;html=1;align=center;" vertex="1" parent="1">
          <mxGeometry x="-240" y="640" width="100" height="40" as="geometry" />
        </mxCell>
        <mxCell id="o0leJxbt58fI-15Nete2-153" value="" style="endArrow=none;html=1;rounded=0;entryX=1;entryY=0.5;entryDx=0;entryDy=0;exitX=0;exitY=0.5;exitDx=0;exitDy=0;" edge="1" parent="1" source="o0leJxbt58fI-15Nete2-149" target="rRCzJtvxpl4aAJUOXlck-27">
          <mxGeometry relative="1" as="geometry">
            <mxPoint x="-380" y="590" as="sourcePoint" />
            <mxPoint x="-220" y="590" as="targetPoint" />
          </mxGeometry>
        </mxCell>
        <mxCell id="o0leJxbt58fI-15Nete2-154" value="N" style="resizable=0;html=1;align=right;verticalAlign=bottom;" connectable="0" vertex="1" parent="o0leJxbt58fI-15Nete2-153">
          <mxGeometry x="1" relative="1" as="geometry">
            <mxPoint x="39.95" y="19.96" as="offset" />
          </mxGeometry>
        </mxCell>
        <mxCell id="o0leJxbt58fI-15Nete2-155" value="" style="endArrow=none;html=1;rounded=0;exitX=0.5;exitY=1;exitDx=0;exitDy=0;entryX=0;entryY=0.5;entryDx=0;entryDy=0;" edge="1" parent="1" source="o0leJxbt58fI-15Nete2-149" target="o0leJxbt58fI-15Nete2-150">
          <mxGeometry relative="1" as="geometry">
            <mxPoint x="-340" y="610" as="sourcePoint" />
            <mxPoint x="-290" y="680" as="targetPoint" />
          </mxGeometry>
        </mxCell>
        <mxCell id="o0leJxbt58fI-15Nete2-156" value="N" style="resizable=0;html=1;align=right;verticalAlign=bottom;" connectable="0" vertex="1" parent="o0leJxbt58fI-15Nete2-155">
          <mxGeometry x="1" relative="1" as="geometry">
            <mxPoint x="-20.33" y="-20.2" as="offset" />
          </mxGeometry>
        </mxCell>
        <mxCell id="o0leJxbt58fI-15Nete2-158" value="Tipo da conta" style="ellipse;whiteSpace=wrap;html=1;align=center;fontStyle=4;" vertex="1" parent="1">
          <mxGeometry x="-240" y="560" width="100" height="40" as="geometry" />
        </mxCell>
        <mxCell id="o0leJxbt58fI-15Nete2-159" value="data de pagamento" style="ellipse;whiteSpace=wrap;html=1;align=center;fontStyle=4;" vertex="1" parent="1">
          <mxGeometry x="-120" y="560" width="100" height="40" as="geometry" />
        </mxCell>
        <mxCell id="o0leJxbt58fI-15Nete2-160" value="taxa" style="ellipse;whiteSpace=wrap;html=1;align=center;" vertex="1" parent="1">
          <mxGeometry x="-80" y="640" width="100" height="40" as="geometry" />
        </mxCell>
        <mxCell id="o0leJxbt58fI-15Nete2-161" value="" style="endArrow=none;html=1;rounded=0;entryX=0.5;entryY=1;entryDx=0;entryDy=0;exitX=0.5;exitY=0;exitDx=0;exitDy=0;" edge="1" parent="1" source="o0leJxbt58fI-15Nete2-150" target="o0leJxbt58fI-15Nete2-158">
          <mxGeometry relative="1" as="geometry">
            <mxPoint x="-380" y="580" as="sourcePoint" />
            <mxPoint x="-220" y="580" as="targetPoint" />
          </mxGeometry>
        </mxCell>
        <mxCell id="o0leJxbt58fI-15Nete2-162" value="" style="endArrow=none;html=1;rounded=0;entryX=0.27;entryY=0.925;entryDx=0;entryDy=0;entryPerimeter=0;exitX=1;exitY=0;exitDx=0;exitDy=0;" edge="1" parent="1" source="o0leJxbt58fI-15Nete2-150" target="o0leJxbt58fI-15Nete2-159">
          <mxGeometry relative="1" as="geometry">
            <mxPoint x="-380" y="580" as="sourcePoint" />
            <mxPoint x="-220" y="580" as="targetPoint" />
          </mxGeometry>
        </mxCell>
        <mxCell id="o0leJxbt58fI-15Nete2-164" value="" style="endArrow=none;html=1;rounded=0;entryX=0;entryY=0.5;entryDx=0;entryDy=0;exitX=1;exitY=0.5;exitDx=0;exitDy=0;" edge="1" parent="1" source="o0leJxbt58fI-15Nete2-150" target="o0leJxbt58fI-15Nete2-160">
          <mxGeometry relative="1" as="geometry">
            <mxPoint x="-380" y="580" as="sourcePoint" />
            <mxPoint x="-220" y="580" as="targetPoint" />
          </mxGeometry>
        </mxCell>
        <mxCell id="o0leJxbt58fI-15Nete2-165" value="faz" style="shape=rhombus;perimeter=rhombusPerimeter;whiteSpace=wrap;html=1;align=center;" vertex="1" parent="1">
          <mxGeometry x="-990" y="170" width="120" height="60" as="geometry" />
        </mxCell>
        <mxCell id="o0leJxbt58fI-15Nete2-166" value="" style="endArrow=none;html=1;rounded=0;entryX=1;entryY=1;entryDx=0;entryDy=0;exitX=0;exitY=0.5;exitDx=0;exitDy=0;" edge="1" parent="1" source="rRCzJtvxpl4aAJUOXlck-27" target="o0leJxbt58fI-15Nete2-165">
          <mxGeometry relative="1" as="geometry">
            <mxPoint x="-600" y="500" as="sourcePoint" />
            <mxPoint x="-630" y="410" as="targetPoint" />
          </mxGeometry>
        </mxCell>
        <mxCell id="o0leJxbt58fI-15Nete2-167" value="N" style="resizable=0;html=1;align=right;verticalAlign=bottom;" connectable="0" vertex="1" parent="o0leJxbt58fI-15Nete2-166">
          <mxGeometry x="1" relative="1" as="geometry">
            <mxPoint x="80" y="55" as="offset" />
          </mxGeometry>
        </mxCell>
        <mxCell id="o0leJxbt58fI-15Nete2-168" value="manutenção" style="whiteSpace=wrap;html=1;align=center;" vertex="1" parent="1">
          <mxGeometry x="-1380" width="100" height="40" as="geometry" />
        </mxCell>
        <mxCell id="o0leJxbt58fI-15Nete2-169" value="" style="endArrow=none;html=1;rounded=0;entryX=1;entryY=1;entryDx=0;entryDy=0;exitX=0;exitY=0;exitDx=0;exitDy=0;" edge="1" parent="1" source="o0leJxbt58fI-15Nete2-165" target="o0leJxbt58fI-15Nete2-168">
          <mxGeometry relative="1" as="geometry">
            <mxPoint x="-1030" y="260" as="sourcePoint" />
            <mxPoint x="-1020" y="110" as="targetPoint" />
          </mxGeometry>
        </mxCell>
        <mxCell id="o0leJxbt58fI-15Nete2-170" value="N" style="resizable=0;html=1;align=right;verticalAlign=bottom;" connectable="0" vertex="1" parent="o0leJxbt58fI-15Nete2-169">
          <mxGeometry x="1" relative="1" as="geometry">
            <mxPoint x="99.8" y="59.88" as="offset" />
          </mxGeometry>
        </mxCell>
        <mxCell id="o0leJxbt58fI-15Nete2-171" value="valor" style="ellipse;whiteSpace=wrap;html=1;align=center;" vertex="1" parent="1">
          <mxGeometry x="-1540" width="100" height="40" as="geometry" />
        </mxCell>
        <mxCell id="o0leJxbt58fI-15Nete2-172" value="Tipo" style="ellipse;whiteSpace=wrap;html=1;align=center;fontStyle=4;" vertex="1" parent="1">
          <mxGeometry x="-1540" y="80" width="100" height="40" as="geometry" />
        </mxCell>
        <mxCell id="o0leJxbt58fI-15Nete2-173" value="" style="endArrow=none;html=1;rounded=0;entryX=0;entryY=0.5;entryDx=0;entryDy=0;exitX=1;exitY=0.5;exitDx=0;exitDy=0;" edge="1" parent="1" source="o0leJxbt58fI-15Nete2-171" target="o0leJxbt58fI-15Nete2-168">
          <mxGeometry relative="1" as="geometry">
            <mxPoint x="-1180" y="110" as="sourcePoint" />
            <mxPoint x="-1020" y="110" as="targetPoint" />
          </mxGeometry>
        </mxCell>
        <mxCell id="o0leJxbt58fI-15Nete2-174" value="" style="endArrow=none;html=1;rounded=0;entryX=0.18;entryY=0.975;entryDx=0;entryDy=0;entryPerimeter=0;exitX=1;exitY=0;exitDx=0;exitDy=0;" edge="1" parent="1" source="o0leJxbt58fI-15Nete2-172" target="o0leJxbt58fI-15Nete2-168">
          <mxGeometry relative="1" as="geometry">
            <mxPoint x="-1180" y="110" as="sourcePoint" />
            <mxPoint x="-1020" y="110" as="targetPoint" />
          </mxGeometry>
        </mxCell>
        <mxCell id="o0leJxbt58fI-15Nete2-175" value="data" style="ellipse;whiteSpace=wrap;html=1;align=center;fontStyle=4;" vertex="1" parent="1">
          <mxGeometry x="-1460" y="-100" width="100" height="40" as="geometry" />
        </mxCell>
        <mxCell id="o0leJxbt58fI-15Nete2-176" value="" style="endArrow=none;html=1;rounded=0;entryX=0.57;entryY=0.975;entryDx=0;entryDy=0;entryPerimeter=0;exitX=0.25;exitY=0;exitDx=0;exitDy=0;" edge="1" parent="1" source="o0leJxbt58fI-15Nete2-168" target="o0leJxbt58fI-15Nete2-175">
          <mxGeometry relative="1" as="geometry">
            <mxPoint x="-1180" y="110" as="sourcePoint" />
            <mxPoint x="-1020" y="110" as="targetPoint" />
          </mxGeometry>
        </mxCell>
      </root>
    </mxGraphModel>
  </diagram>
</mxfile>
